<svg width="704" height="469" viewBox="0 0 704 469" fill="none" xmlns="http://www.w3.org/2000/svg">
<path d="M64.6282 461.543C100.321 461.543 129.256 432.608 129.256 396.915C129.256 361.221 100.321 332.286 64.6282 332.286C28.935 332.286 0 361.221 0 396.915C0 432.608 28.935 461.543 64.6282 461.543Z" fill="#CDFFE6"/>
<path fill-rule="evenodd" clip-rule="evenodd" d="M621.886 436.912C618.993 432.033 615.9 425.929 612.605 418.602L610.432 419.574C608.117 420.608 605.395 419.731 604.12 417.539C602.818 415.301 603.284 412.455 605.232 410.749L608.134 408.207C602.711 395.078 596.798 378.963 590.394 359.863L627.127 219.878C622.892 295.74 625.378 349.192 634.584 380.236C648.394 426.801 663.86 458.814 677.67 454.739C686.876 452.023 695.346 456.777 703.079 469C697.924 469 689.454 469 677.67 469C671.781 469 643.795 464.112 628.338 446.161L624.793 447.745C622.479 448.779 619.757 447.902 618.482 445.711C617.18 443.473 617.646 440.626 619.594 438.92L621.886 436.912ZM537.463 236.173L546.756 298.591C503.906 326.127 476.564 337.635 464.728 333.115C446.975 326.335 438.52 306.496 420.538 266.554C408.76 240.391 394.157 187.501 376.729 107.882C376.177 105.36 375.405 102.891 374.422 100.503C370.054 89.8979 372.169 85.7754 380.767 88.1355C394.852 92.0022 450.873 260.37 472.928 266.679C487.631 270.885 509.143 260.716 537.463 236.173Z" fill="#196D30"/>
<mask id="mask0_3_368" style="mask-type:alpha" maskUnits="userSpaceOnUse" x="232" y="23" width="417" height="445">
<path d="M272.722 144.808C271.809 144.53 270.939 144.328 270.113 144.202C260.533 142.741 250.381 142.926 239.657 144.757C236.984 145.214 234.294 144.055 232.789 141.8C231.608 140.03 232.086 137.637 233.856 136.456C234.05 136.326 234.256 136.215 234.47 136.122C247.553 130.485 258.237 128.409 266.521 129.894C280.252 132.355 332.138 146.915 352.644 188.524C373.149 230.132 401.019 295.527 417.315 313.979C433.61 332.43 466.039 362.424 487.377 341.081C501.603 326.852 515.79 294.597 529.937 244.316L480.356 102.668C471.15 76.3658 482.977 47.3246 507.94 34.9379C511.652 33.096 515.049 31.4953 518.13 30.1359C526.747 26.3345 551.495 23.972 592.375 23.0482C622.874 22.3591 648.157 46.5249 648.847 77.0241C648.918 80.2008 648.716 83.3778 648.241 86.5198L628.364 218.154C624.447 236.454 621.614 249.749 619.864 258.039C608.571 311.548 601.14 349.139 597.57 370.813C596.843 375.222 590.589 427.572 567.568 449.391C544.547 471.209 485.586 475.106 430.88 449.52C408.974 439.275 378.769 412.396 346.341 395.534C334.061 389.148 321.695 385.014 309.747 385.195C274.456 385.729 259.877 433.97 250.227 431.991C235.865 429.045 230.894 421.495 235.313 409.343C268.903 373.357 296.673 357.062 318.625 360.458C355.742 366.199 419.5 410.447 443.499 414.847C472.048 420.081 512.022 415.942 525.521 401.608C533.62 393.007 544.814 366.57 559.101 322.296L559.038 322.275C559.214 321.73 558.914 321.144 558.368 320.968C557.873 320.809 557.337 321.04 557.112 321.509C539.691 358.004 526.742 379.975 518.265 387.423C486.824 415.047 451.004 406.693 423.624 392.467C413.36 387.134 403.016 377.027 392.592 362.146L388.929 363.783C386.614 364.818 383.892 363.94 382.617 361.749C381.315 359.511 381.781 356.665 383.729 354.959L386.343 352.669C382.049 345.777 377.742 338.08 373.422 329.577L370.339 330.125C367.843 330.569 365.414 329.059 364.708 326.625C363.986 324.138 365.126 321.489 367.429 320.305L368.575 319.715C367.682 317.837 366.788 315.925 365.893 313.979L359.771 295.105L355.425 295.878C352.929 296.322 350.5 294.812 349.793 292.377C349.071 289.891 350.212 287.242 352.515 286.058L356.218 284.153L348.466 260.253L343.825 261.078C341.329 261.522 338.9 260.012 338.193 257.577C337.472 255.091 338.612 252.442 340.915 251.258L344.885 249.216L329.055 200.413C326.441 192.355 322.008 185.006 316.1 178.934C313.832 176.604 311.631 174.39 309.497 172.293L305.632 175.109C303.584 176.602 300.739 176.31 299.036 174.431C297.297 172.513 297.161 169.632 298.712 167.558L301.115 164.344C294.434 158.26 288.536 153.543 283.419 150.194L279.315 155.1C277.688 157.045 274.857 157.449 272.75 156.039C270.599 154.598 269.77 151.835 270.773 149.448L272.722 144.808Z" fill="white"/>
</mask>
<g mask="url(#mask0_3_368)">
<path d="M272.722 144.808C271.809 144.53 270.939 144.328 270.113 144.202C260.533 142.741 250.381 142.926 239.657 144.757C236.984 145.214 234.294 144.055 232.789 141.8C231.608 140.03 232.086 137.637 233.856 136.456C234.05 136.326 234.256 136.215 234.47 136.122C247.553 130.485 258.237 128.409 266.521 129.894C280.252 132.355 332.138 146.915 352.644 188.524C373.149 230.132 401.019 295.527 417.315 313.979C433.61 332.43 466.039 362.424 487.377 341.081C501.603 326.852 515.79 294.597 529.937 244.316L480.356 102.668C471.15 76.3658 482.977 47.3246 507.94 34.9379C511.652 33.096 515.049 31.4953 518.13 30.1359C526.747 26.3345 551.495 23.972 592.375 23.0482C622.874 22.3591 648.157 46.5249 648.847 77.0241C648.918 80.2008 648.716 83.3778 648.241 86.5198L628.364 218.154C624.447 236.454 621.614 249.749 619.864 258.039C608.571 311.548 601.14 349.139 597.57 370.813C596.843 375.222 590.589 427.572 567.568 449.391C544.547 471.209 485.586 475.106 430.88 449.52C408.974 439.275 378.769 412.396 346.341 395.534C334.061 389.148 321.695 385.014 309.747 385.195C274.456 385.729 259.877 433.97 250.227 431.991C235.865 429.045 230.894 421.495 235.313 409.343C268.903 373.357 296.673 357.062 318.625 360.458C355.742 366.199 419.5 410.447 443.499 414.847C472.048 420.081 512.022 415.942 525.521 401.608C533.62 393.007 544.814 366.57 559.101 322.296L559.038 322.275C559.214 321.73 558.914 321.144 558.368 320.968C557.873 320.809 557.337 321.04 557.112 321.509C539.691 358.004 526.742 379.975 518.265 387.423C486.824 415.047 451.004 406.693 423.624 392.467C413.36 387.134 403.016 377.027 392.592 362.146L388.929 363.783C386.614 364.818 383.892 363.94 382.617 361.749C381.315 359.511 381.781 356.665 383.729 354.959L386.343 352.669C382.049 345.777 377.742 338.08 373.422 329.577L370.339 330.125C367.843 330.569 365.414 329.059 364.708 326.625C363.986 324.138 365.126 321.489 367.429 320.305L368.575 319.715C367.682 317.837 366.788 315.925 365.893 313.979L359.771 295.105L355.425 295.878C352.929 296.322 350.5 294.812 349.793 292.377C349.071 289.891 350.212 287.242 352.515 286.058L356.218 284.153L348.466 260.253L343.825 261.078C341.329 261.522 338.9 260.012 338.193 257.577C337.472 255.091 338.612 252.442 340.915 251.258L344.885 249.216L329.055 200.413C326.441 192.355 322.008 185.006 316.1 178.934C313.832 176.604 311.631 174.39 309.497 172.293L305.632 175.109C303.584 176.602 300.739 176.31 299.036 174.431C297.297 172.513 297.161 169.632 298.712 167.558L301.115 164.344C294.434 158.26 288.536 153.543 283.419 150.194L279.315 155.1C277.688 157.045 274.857 157.449 272.75 156.039C270.599 154.598 269.77 151.835 270.773 149.448L272.722 144.808Z" fill="#6BB67F"/>
<path fill-rule="evenodd" clip-rule="evenodd" d="M507.151 67.9209L508.878 72.5309C513.568 85.0494 527.517 91.3962 540.036 86.7068C544.517 85.0281 548.4 82.0588 551.195 78.174L557.184 69.8471C558.075 68.6088 559.801 68.327 561.039 69.2177C562.162 70.0257 562.514 71.5402 561.863 72.7607L552.427 90.4313C546.599 101.346 550.723 114.919 561.638 120.747C565.279 122.691 569.386 123.592 573.506 123.35L587.777 122.51C589.3 122.421 590.607 123.582 590.696 125.105C590.773 126.402 589.935 127.577 588.684 127.927L570.111 133.127C558.595 136.352 551.874 148.301 555.098 159.817C556.276 164.023 558.697 167.774 562.045 170.578L584.744 189.593C585.913 190.573 586.067 192.315 585.087 193.484C584.421 194.279 583.366 194.634 582.355 194.403L568.121 191.154C557.715 188.779 547.354 195.289 544.979 205.694C544.556 207.549 544.409 209.455 544.542 211.353L545.832 229.67C545.939 231.191 544.793 232.512 543.271 232.619C542.139 232.699 541.074 232.078 540.585 231.054L529.775 208.417C527.869 204.426 523.088 202.736 519.097 204.642C516.313 205.971 514.54 208.783 514.54 211.868L476.426 125.697V96.145C483.985 102.006 494.864 100.63 500.726 93.0704C503.894 88.9834 505.071 83.6941 503.934 78.6491L501.871 69.4971C501.535 68.0091 502.47 66.5309 503.958 66.1955C505.304 65.892 506.667 66.6287 507.151 67.9209ZM353.977 407.41L251.235 423.705L226.93 394.429L256.482 369.02L311.168 346.372L468.043 413.486C454.576 414.636 438.741 413.44 420.538 409.896C402.335 406.352 380.148 405.523 353.977 407.41ZM578.892 162.707C575.536 162.707 572.816 159.986 572.816 156.63C572.816 153.275 575.536 150.554 578.892 150.554C582.248 150.554 584.968 153.275 584.968 156.63C584.968 159.986 582.248 162.707 578.892 162.707ZM569.502 106.916C566.146 106.916 563.425 104.196 563.425 100.84C563.425 97.4844 566.146 94.7641 569.502 94.7641C572.857 94.7641 575.578 97.4844 575.578 100.84C575.578 104.196 572.857 106.916 569.502 106.916ZM530.835 74.8785C527.479 74.8785 524.759 72.1581 524.759 68.8023C524.759 65.4465 527.479 62.7261 530.835 62.7261C534.191 62.7261 536.911 65.4465 536.911 68.8023C536.911 72.1581 534.191 74.8785 530.835 74.8785ZM487.197 87.0308C483.842 87.0308 481.121 84.3104 481.121 80.9546C481.121 77.5988 483.842 74.8785 487.197 74.8785C490.553 74.8785 493.273 77.5988 493.273 80.9546C493.273 84.3104 490.553 87.0308 487.197 87.0308Z" fill="#196D30"/>
</g>
<path d="M252.437 274.839H250.227C247.787 274.839 245.808 276.818 245.808 279.258V294.725C245.808 297.165 247.787 299.144 250.227 299.144H252.437C254.877 299.144 256.856 297.165 256.856 294.725V279.258C256.856 276.818 254.877 274.839 252.437 274.839Z" fill="#EA6078"/>
<path d="M241.113 272.906H237.246C234.806 272.906 232.827 274.884 232.827 277.325V297.763C232.827 300.203 234.806 302.182 237.246 302.182H241.113C243.553 302.182 245.532 300.203 245.532 297.763V277.325C245.532 274.884 243.553 272.906 241.113 272.906Z" fill="white" stroke="#979797"/>
<path fill-rule="evenodd" clip-rule="evenodd" d="M62.695 363.772H66.0092C68.1447 363.772 69.8759 365.503 69.8759 367.639V377.581H58.8283V367.639C58.8283 365.503 60.5595 363.772 62.695 363.772ZM52.2612 410.172L76.4277 410.229L83.4091 425.695C75.0621 426.328 68.7097 426.644 64.3521 426.644C59.9944 426.644 53.458 426.328 44.7427 425.695L52.2612 410.172Z" fill="#EA6078"/>
<path d="M410.604 17.7366C410.774 13.1214 410.771 9.70529 410.595 7.48837C410.484 6.09202 410.442 4.21994 410.469 1.87213C410.473 1.44105 410.729 1.05215 411.122 0.8761C411.679 0.626943 412.332 0.87645 412.582 1.43339L413.679 3.88568C413.845 4.25785 414.111 4.57669 414.448 4.80692C415.455 5.49599 416.83 5.23817 417.519 4.23107L420.085 0.48093C420.311 0.15121 420.697 -0.0310218 421.095 0.00435092C421.702 0.0583725 422.151 0.594839 422.097 1.20258L421.665 6.06393C421.638 6.36607 421.674 6.6705 421.77 6.95827C422.156 8.11593 423.407 8.74157 424.565 8.35569L427.058 7.52466C427.406 7.40862 427.789 7.47301 428.08 7.69649C428.564 8.06808 428.655 8.76162 428.283 9.24555L419.544 20.6272L380.005 130.887C378.56 134.917 376.224 138.569 373.171 141.57C361.968 152.585 343.956 152.432 332.942 141.228L322.478 130.586C322.374 130.48 322.268 130.374 322.161 130.271C314.608 122.941 302.543 123.121 295.214 130.674L230.396 197.462L223.658 190.922L288.475 124.134C299.417 112.86 317.427 112.59 328.701 123.532C328.861 123.687 329.019 123.844 329.175 124.002L339.638 134.645C347.017 142.15 359.083 142.253 366.588 134.874C368.633 132.863 370.198 130.417 371.166 127.717L410.604 17.7366V17.7366ZM160.757 193.252C162.632 191.461 165.604 191.53 167.395 193.406C169.186 195.281 169.117 198.253 167.241 200.044L129.127 236.435C122.502 242.76 122.259 253.258 128.584 259.883C128.929 260.243 129.289 260.589 129.665 260.917C138.01 268.211 150.428 268.325 158.906 261.186L230.298 201.066C232.282 199.396 235.243 199.65 236.914 201.633C238.584 203.617 238.33 206.579 236.347 208.249L164.954 268.369C152.932 278.493 135.32 278.331 123.486 267.988C122.897 267.473 122.332 266.932 121.792 266.367C111.886 255.991 112.266 239.549 122.642 229.643L160.757 193.252Z" fill="#BEA465"/>
<path d="M64.3521 311.296C72.1314 311.296 78.4377 317.602 78.4377 325.382V377.581C78.4377 380.022 76.4593 382 74.0187 382H54.6855C52.2449 382 50.2665 380.022 50.2665 377.581V325.382C50.2665 317.602 56.5728 311.296 64.3521 311.296ZM72.3616 325.382C72.3616 320.958 68.7756 317.372 64.3521 317.372C59.9286 317.372 56.3426 320.958 56.3426 325.382V375.924H72.3616V325.382ZM46.0858 424.445C52.2994 425.727 58.3882 426.368 64.3521 426.368C70.2933 426.368 76.1994 425.732 82.0704 424.46C82.6667 424.33 83.2549 424.709 83.3841 425.305C83.4007 425.382 83.4091 425.461 83.4091 425.539V425.821C83.4091 426.468 82.96 427.028 82.3286 427.169C76.4638 428.476 70.4716 429.13 64.3521 429.13C58.2169 429.13 52.0454 428.473 45.8376 427.159C45.1993 427.024 44.7427 426.46 44.7427 425.808V425.539C44.7427 424.922 45.2429 424.422 45.86 424.422C45.9359 424.422 46.0115 424.43 46.0858 424.445Z" fill="#EA6078"/>
<path fill-rule="evenodd" clip-rule="evenodd" d="M56.895 375.372H71.8092C79.1309 375.372 85.0663 381.307 85.0663 388.629V402.146C85.0663 408.834 80.085 414.474 73.4486 415.301C69.8631 415.748 66.923 415.972 64.6283 415.972C62.2523 415.972 59.1312 415.732 55.2649 415.253C48.6244 414.43 43.6379 408.788 43.6379 402.097V388.629C43.6379 381.307 49.5733 375.372 56.895 375.372Z" fill="#196D30"/>
<path fill-rule="evenodd" clip-rule="evenodd" d="M54.4092 383.994C56.0871 383.994 57.4472 385.354 57.4472 387.032V404.156C57.4472 405.833 56.0871 407.194 54.4092 407.194C52.7313 407.194 51.3711 405.833 51.3711 404.156V387.032C51.3711 385.354 52.7313 383.994 54.4092 383.994ZM64.352 382.673C66.0299 382.673 67.39 384.033 67.39 385.711V405.597C67.39 407.274 66.0299 408.635 64.352 408.635C62.6741 408.635 61.3139 407.274 61.3139 405.597V385.711C61.3139 384.033 62.6741 382.673 64.352 382.673ZM74.2948 383.994C75.9727 383.994 77.3328 385.354 77.3328 387.032V404.156C77.3328 405.833 75.9727 407.194 74.2948 407.194C72.6169 407.194 71.2567 405.833 71.2567 404.156V387.032C71.2567 385.354 72.6169 383.994 74.2948 383.994Z" fill="#6BB67F"/>
<path fill-rule="evenodd" clip-rule="evenodd" d="M512.984 88.1355C533.712 105.715 545.569 121.182 548.555 134.535C551.54 147.889 547.588 167.774 536.698 194.192C515.599 176.765 503.601 161.575 500.704 148.621C497.808 135.667 501.901 115.505 512.984 88.1355Z" fill="white"/>
<path fill-rule="evenodd" clip-rule="evenodd" d="M513.316 126.996L515.339 126.609C516.383 126.41 517.392 127.091 517.598 128.133L524.283 161.896C524.491 162.943 523.81 163.96 522.762 164.168C522.758 164.168 522.753 164.169 522.749 164.17L520.726 164.556C519.682 164.755 518.673 164.075 518.467 163.033L511.782 129.27C511.575 128.223 512.256 127.205 513.303 126.998C513.308 126.997 513.312 126.996 513.316 126.996Z" fill="#737373"/>
<path fill-rule="evenodd" clip-rule="evenodd" d="M374.062 85.852C386.175 80.7203 393.842 81.2053 397.062 87.307C398.359 89.7632 404.376 100.204 402.31 100.84C400.42 101.422 382.977 91.726 379.386 91.726C376.992 91.726 376.44 97.8021 377.729 109.954C373.953 101.341 371.651 95.5409 370.824 92.5545C370.068 89.8245 371.453 86.957 374.062 85.852V85.852Z" fill="#6BB67F"/>
<mask id="mask1_3_368" style="mask-type:alpha" maskUnits="userSpaceOnUse" x="88" y="184" width="259" height="282">
<path d="M183.168 231.496L235.556 210.68L228.408 194.192L258.652 196.69C263.801 197.115 268.985 196.816 274.051 195.801L331.703 184.249L346.341 216.563L327.008 230.649C314.487 239.671 299.021 244.182 280.608 244.182C271.745 244.182 264.717 244.012 259.523 243.67L267.351 281.192L189.189 287.424L179.7 269.174C172.923 275.654 167.248 280.213 162.675 282.849C151.245 289.437 135.842 294.39 132.211 295.945C126.375 298.446 118.853 302.09 109.647 306.877C95.6535 289.938 88.6567 281.468 88.6567 281.468C88.6567 281.468 93.6281 277.417 103.571 269.315L129.533 251.916L147.866 226.254C151.888 220.623 156.933 215.798 162.738 212.031L186.151 196.834L183.168 231.496ZM194.785 294.182L267.351 281.192C269.133 294.364 269.409 309.187 268.18 325.658C266.95 342.129 266.121 357.136 265.694 370.677C268.824 378.226 272.322 384.762 276.189 390.286C280.056 395.81 283.278 400.873 285.856 405.477L312.094 442.486L306.294 449.943L268.18 465.962L267.351 455.743L265.694 449.391L227.93 394.502C221.586 385.281 218.193 374.35 218.2 363.158L218.22 330.887L184.494 373.439C186.954 384.311 188.427 392.689 188.913 398.572C189.4 404.455 189.114 410.435 188.055 416.512L189.023 428.215V465.826H112.133L112.17 457.218C112.203 449.41 117.682 442.684 125.323 441.074L144.692 436.991L142.994 418.595C140.993 412.268 139.728 406.238 139.199 400.505C138.848 396.697 138.308 387.457 137.579 372.784C136.75 356.108 143.509 339.952 155.964 328.834L194.785 294.182Z" fill="white"/>
</mask>
<g mask="url(#mask1_3_368)">
<path d="M183.168 231.496L235.556 210.68L228.408 194.192L258.652 196.69C263.801 197.115 268.985 196.816 274.051 195.801L331.703 184.249L346.341 216.563L327.008 230.649C314.487 239.671 299.021 244.182 280.608 244.182C271.745 244.182 264.717 244.012 259.523 243.67L267.351 281.192L189.189 287.424L179.7 269.174C172.923 275.654 167.248 280.213 162.675 282.849C151.245 289.437 135.842 294.39 132.211 295.945C126.375 298.446 118.853 302.09 109.647 306.877C95.6535 289.938 88.6567 281.468 88.6567 281.468C88.6567 281.468 93.6281 277.417 103.571 269.315L129.533 251.916L147.866 226.254C151.888 220.623 156.933 215.798 162.738 212.031L186.151 196.834L183.168 231.496ZM194.785 294.182L267.351 281.192C269.133 294.364 269.409 309.187 268.18 325.658C266.95 342.129 266.121 357.136 265.694 370.677C268.824 378.226 272.322 384.762 276.189 390.286C280.056 395.81 283.278 400.873 285.856 405.477L312.094 442.486L306.294 449.943L268.18 465.962L267.351 455.743L265.694 449.391L227.93 394.502C221.586 385.281 218.193 374.35 218.2 363.158L218.22 330.887L184.494 373.439C186.954 384.311 188.427 392.689 188.913 398.572C189.4 404.455 189.114 410.435 188.055 416.512L189.023 428.215V465.826H112.133L112.17 457.218C112.203 449.41 117.682 442.684 125.323 441.074L144.692 436.991L142.994 418.595C140.993 412.268 139.728 406.238 139.199 400.505C138.848 396.697 138.308 387.457 137.579 372.784C136.75 356.108 143.509 339.952 155.964 328.834L194.785 294.182Z" fill="#E8E5DE"/>
<path fill-rule="evenodd" clip-rule="evenodd" d="M140.304 418.457L191.675 415.972V467.619L118.485 469L126.218 439.448L143.342 432.543L140.304 418.457ZM287.513 402.715L325.074 455.191C283.278 464.581 262.011 469.276 261.275 469.276C260.538 469.276 255.751 453.349 246.913 421.496L287.513 402.715Z" fill="#737373"/>
</g>
<path fill-rule="evenodd" clip-rule="evenodd" d="M165.989 185.354L157.063 195.768C156.454 196.479 156.359 197.497 156.826 198.308L160.235 204.228C160.827 205.256 162.124 205.633 163.175 205.083L172.894 199.992L165.989 185.354Z" fill="#737373"/>
<path fill-rule="evenodd" clip-rule="evenodd" d="M344.37 223.204L328.178 182.853C331.964 179.483 334.917 177.5 337.036 176.905C341.318 175.702 346.874 177.825 349.344 176.439C355.803 172.814 353.415 167.454 369.232 159.878C385.048 152.302 387.292 151.618 399.32 152.502C408.383 153.169 409.232 157.857 400.534 164.474C397.687 166.64 382.844 173.398 381.399 174.508C377.494 177.506 375.303 181.074 374.826 185.209L387.866 182.503C389.704 182.121 391.525 183.226 392.035 185.033C392.575 186.947 391.785 188.988 390.096 190.039C379.973 196.341 371.986 200.216 366.136 201.662C364.228 202.133 362.243 203.105 360.181 204.575C358.398 205.847 358.634 211.337 355.606 214.991C353.969 216.966 350.224 219.704 344.37 223.204ZM115.723 304.115C112.635 307.672 109.965 310.066 107.713 311.296C103.549 313.571 101.016 310.341 99.4278 311.849C97.5906 313.592 95.0831 316.918 94.4564 318.753C91.8786 326.302 86.539 331.366 78.4374 333.944V325.382L77.9193 322.041C77.2034 319.51 75.9952 320.624 74.2946 325.382C73.5913 327.35 72.9137 330.077 72.3613 333.944C71.9298 336.964 61.0375 337.534 54.1328 335.048C50.2162 333.638 51.0026 328.198 50.2662 325.382C49.2829 321.622 48.1432 319.768 54.1209 311.716C61.0905 302.329 67.7742 296.875 74.172 295.355C76.9658 294.125 79.0321 292.718 80.3708 291.134C81.8627 289.369 82.2809 285.923 83.1327 284.23C84.1219 282.262 86.7918 279.777 91.1421 276.773L115.723 304.115Z" fill="#737373"/>
<mask id="mask2_3_368" style="mask-type:alpha" maskUnits="userSpaceOnUse" x="152" y="113" width="101" height="139">
<path d="M165.725 208.747C159.099 185.883 155.504 170.536 154.942 162.707C154.881 161.857 154.687 160.906 154.362 159.856C148.643 141.403 158.626 121.747 176.899 115.478C179.459 114.6 182.109 114.014 184.801 113.731C204.534 111.657 222.211 125.972 224.285 145.705L228.964 190.214L232.709 189.428C235.259 189.47 237.219 189.617 238.589 189.867C239.96 190.118 242.04 190.711 244.83 191.646C247.818 191.863 249.874 192.367 250.998 193.156C252.121 193.945 252.433 195.106 251.934 196.637L247.633 197.784C244.357 199.515 242.136 201.255 240.972 203.006C232.127 216.3 226.351 228.569 221.238 233.525C212.054 242.427 208.316 247.814 193.707 250.055C179.098 252.295 175.227 250.969 165.626 242.053C159.226 236.108 155.848 227.704 155.494 216.84C159.873 213.656 163.022 211.216 164.941 209.522C165.222 209.273 165.483 209.015 165.725 208.747Z" fill="white"/>
</mask>
<g mask="url(#mask2_3_368)">
<path d="M165.725 208.747C159.099 185.883 155.504 170.536 154.942 162.707C154.881 161.857 154.687 160.906 154.362 159.856C148.643 141.403 158.626 121.747 176.899 115.478C179.459 114.6 182.109 114.014 184.801 113.731C204.534 111.657 222.211 125.972 224.285 145.705L228.964 190.214L232.709 189.428C235.259 189.47 237.219 189.617 238.589 189.867C239.96 190.118 242.04 190.711 244.83 191.646C247.818 191.863 249.874 192.367 250.998 193.156C252.121 193.945 252.433 195.106 251.934 196.637L247.633 197.784C244.357 199.515 242.136 201.255 240.972 203.006C232.127 216.3 226.351 228.569 221.238 233.525C212.054 242.427 208.316 247.814 193.707 250.055C179.098 252.295 175.227 250.969 165.626 242.053C159.226 236.108 155.848 227.704 155.494 216.84C159.873 213.656 163.022 211.216 164.941 209.522C165.222 209.273 165.483 209.015 165.725 208.747Z" fill="#EA6078"/>
<path fill-rule="evenodd" clip-rule="evenodd" d="M244.757 191.378C240.347 192.076 236.98 193.836 234.654 196.657C227.486 205.352 221.681 222.346 216.015 228.032C203.378 240.711 201.242 240.583 192.641 242.878C184.039 245.174 176.984 242.198 171.482 237.046C167.813 233.612 164.571 225.486 161.754 212.668L153.837 217.668L157.735 232.976C166.694 245.922 171.173 252.396 171.173 252.396C171.173 252.396 182.805 252.31 206.067 252.138L216.102 242.36L258.671 192.742L244.757 191.378Z" fill="#EA6078"/>
</g>
<path fill-rule="evenodd" clip-rule="evenodd" d="M211.979 169.525C202.79 174.271 191.444 170.366 186.637 160.804C181.83 151.242 185.382 139.643 194.571 134.897C203.76 130.152 215.106 134.056 219.913 143.619C224.72 153.181 221.167 164.78 211.979 169.525Z" fill="#737373"/>
<path d="M201.792 133.675C200.228 133.773 198.675 134.066 197.176 134.552L200.254 136.788L201.474 134.232C201.484 134.21 201.495 134.188 201.505 134.167C201.591 133.994 201.687 133.83 201.792 133.675ZM219.035 142.686C219.02 142.722 219.003 142.757 218.986 142.793L216.293 148.438L221.566 152.268C221.575 152.275 221.584 152.281 221.593 152.288C221.653 148.965 220.795 145.632 219.035 142.686ZM211.477 168.181C211.09 168.039 210.715 167.842 210.364 167.587L207.983 165.858L206.053 169.905C207.925 169.612 209.757 169.037 211.477 168.181ZM188.017 162.496C188.067 162.354 188.126 162.212 188.192 162.073L191.944 154.208L185.011 149.172C184.919 149.105 184.83 149.036 184.744 148.963C184 153.628 185.105 158.517 188.017 162.496ZM195.35 135.252C193.193 136.213 191.191 137.6 189.476 139.409C187.376 141.625 185.949 144.222 185.183 146.957C185.375 147.298 185.643 147.606 185.983 147.852L192.662 152.703L199.536 138.293L195.35 135.252ZM214.129 166.569C214.485 166.309 214.834 166.035 215.174 165.747C215.185 165.732 215.196 165.717 215.207 165.702L215.216 165.69L220.275 158.732C220.83 157.369 221.209 155.954 221.414 154.521C221.221 154.164 220.946 153.844 220.594 153.588L215.575 149.943L208.701 164.353L211.336 166.267C212.18 166.88 213.249 166.961 214.129 166.569ZM217.739 140.797C217.124 140.012 216.436 139.266 215.676 138.567C215.311 138.233 214.937 137.915 214.554 137.615L207.838 134.27C206.662 133.957 205.462 133.761 204.257 133.68C203.729 133.931 203.28 134.351 203.001 134.911C202.991 134.932 202.991 134.932 202.981 134.952L201.629 137.787L214.919 147.44L217.479 142.072C217.675 141.661 217.757 141.225 217.739 140.797ZM204.095 170.107C204.124 170.058 204.152 170.006 204.178 169.954C204.188 169.934 204.188 169.934 204.197 169.914L206.608 164.86L193.319 155.207L189.699 162.794C189.48 163.254 189.403 163.747 189.451 164.223C189.766 164.559 190.095 164.885 190.44 165.201C194.284 168.732 199.239 170.355 204.095 170.107ZM214.201 148.944L200.911 139.291L194.037 153.702L207.326 163.355L214.201 148.944ZM222.322 169.868C212.416 180.376 195.751 180.925 185.101 171.095C174.451 161.264 173.848 144.777 183.755 134.269C193.661 123.761 210.326 123.212 220.976 133.043C231.626 142.873 232.229 159.36 222.322 169.868ZM153.078 144.61L158.817 181.124C154.215 178.531 151.054 173.995 150.258 168.841L148.518 157.571C147.771 152.738 149.477 147.89 153.078 144.61Z" fill="#BEA465"/>
<path fill-rule="evenodd" clip-rule="evenodd" d="M264.313 266.554L189.189 287.544L192.78 296.106L267.351 281.192C267.012 277.397 266.643 274.543 266.246 272.63C265.849 270.716 265.204 268.691 264.313 266.554Z" fill="#EA6078"/>
<path fill-rule="evenodd" clip-rule="evenodd" d="M254.094 391.943C257.392 392.183 259.068 393.088 259.122 394.658C259.427 403.486 259.316 409.394 258.789 412.381C255.475 431.162 254.094 431.162 246.913 432.819C233.158 435.993 228.555 429.549 233.103 413.486L254.094 391.943Z" fill="#6BB67F"/>
<path fill-rule="evenodd" clip-rule="evenodd" d="M240.238 268.419L244.005 267.549C246.383 267 248.756 268.483 249.305 270.861L253.033 287.007C253.582 289.385 252.099 291.758 249.721 292.307L245.954 293.177C243.576 293.726 241.203 292.243 240.654 289.865L236.926 273.719C236.377 271.341 237.86 268.968 240.238 268.419ZM215.725 274.58L219.477 273.644C221.845 273.054 224.244 274.495 224.834 276.863L228.843 292.942C229.434 295.31 227.992 297.708 225.624 298.299L221.873 299.234C219.505 299.825 217.106 298.384 216.516 296.015L212.507 279.936C211.916 277.568 213.357 275.17 215.725 274.58ZM192.26 280.339L196.068 279.668C198.472 279.244 200.764 280.849 201.187 283.252L204.065 299.572C204.489 301.975 202.884 304.267 200.48 304.691L196.673 305.363C194.269 305.786 191.977 304.182 191.553 301.778L188.676 285.459C188.252 283.055 189.857 280.763 192.26 280.339Z" fill="#EA6078"/>
<path fill-rule="evenodd" clip-rule="evenodd" d="M243.833 276.96C242.312 276.854 241.164 275.534 241.271 274.013C241.377 272.491 242.697 271.344 244.219 271.45C245.74 271.557 246.887 272.876 246.781 274.398C246.675 275.92 245.355 277.067 243.833 276.96ZM219.469 283.057C217.946 282.977 216.776 281.678 216.856 280.155C216.936 278.631 218.235 277.461 219.759 277.541C221.282 277.621 222.452 278.92 222.372 280.444C222.292 281.967 220.993 283.137 219.469 283.057ZM195.404 289.057C193.89 288.872 192.813 287.494 192.999 285.98C193.185 284.466 194.563 283.389 196.077 283.575C197.591 283.761 198.667 285.139 198.482 286.653C198.296 288.167 196.918 289.243 195.404 289.057Z" fill="#BEA465"/>
<path fill-rule="evenodd" clip-rule="evenodd" d="M172.894 224.02C170.758 224.02 169.027 222.289 169.027 220.154C169.027 218.018 170.758 216.287 172.894 216.287C175.029 216.287 176.761 218.018 176.761 220.154C176.761 222.289 175.029 224.02 172.894 224.02ZM206.037 215.735C203.901 215.735 202.17 214.004 202.17 211.868C202.17 209.733 203.901 208.001 206.037 208.001C208.172 208.001 209.903 209.733 209.903 211.868C209.903 214.004 208.172 215.735 206.037 215.735ZM191.675 236.173C189.539 236.173 187.808 234.442 187.808 232.306C187.808 230.171 189.539 228.439 191.675 228.439C193.81 228.439 195.541 230.171 195.541 232.306C195.541 234.442 193.81 236.173 191.675 236.173Z" fill="#EA6078"/>
<path fill-rule="evenodd" clip-rule="evenodd" d="M131.742 460.99H188.085C189.457 460.99 190.57 462.103 190.57 463.476C190.57 464.849 189.457 465.962 188.085 465.962H123.18H112.133V447.842C112.133 445.518 113.743 443.504 116.011 442.993L131.742 439.448V460.99ZM305.745 450.692C305.575 450.826 305.384 450.94 305.175 451.029L269.583 466.137C268.319 466.674 266.86 466.084 266.323 464.821C266.126 464.355 266.081 463.863 266.166 463.4L261.726 452.102C259.79 447.179 262.049 441.602 266.865 439.413L286.123 430.661C288.196 429.718 290.645 430.305 292.066 432.085L303.465 446.368C303.593 446.328 303.721 446.299 303.85 446.28L310.15 438.5C311.014 437.434 312.579 437.269 313.646 438.133C314.713 438.997 314.877 440.562 314.013 441.629L307.408 449.785C306.978 450.316 306.375 450.624 305.745 450.692Z" fill="#EA6078"/>
<path fill-rule="evenodd" clip-rule="evenodd" d="M413.179 194.192C410.128 194.192 407.655 191.719 407.655 188.668C407.655 185.618 410.128 183.144 413.179 183.144C416.229 183.144 418.702 185.618 418.702 188.668C418.702 191.719 416.229 194.192 413.179 194.192ZM427.54 232.858C424.49 232.858 422.017 230.385 422.017 227.335C422.017 224.284 424.49 221.811 427.54 221.811C430.591 221.811 433.064 224.284 433.064 227.335C433.064 230.385 430.591 232.858 427.54 232.858ZM443.007 269.315C439.956 269.315 437.483 266.842 437.483 263.792C437.483 260.741 439.956 258.268 443.007 258.268C446.058 258.268 448.531 260.741 448.531 263.792C448.531 266.842 446.058 269.315 443.007 269.315Z" fill="#6BB67F"/>
<path d="M312.37 377.581C314.963 377.581 317.065 375.479 317.065 372.886C317.065 370.293 314.963 368.191 312.37 368.191C309.776 368.191 307.674 370.293 307.674 372.886C307.674 375.479 309.776 377.581 312.37 377.581Z" fill="#6BB67F"/>
<path d="M352.141 389.734C354.734 389.734 356.836 387.632 356.836 385.039C356.836 382.445 354.734 380.343 352.141 380.343C349.548 380.343 347.446 382.445 347.446 385.039C347.446 387.632 349.548 389.734 352.141 389.734Z" fill="#6BB67F"/>
<path opacity="0.591634" d="M625.767 137.489L629.33 137.99L628.894 141.094L631.566 141.47L631.005 145.462L628.333 145.086L626.793 156.041L623.23 155.54L614.595 143.155L615.156 139.164L625.33 140.594L625.767 137.489ZM624.241 151.844L625.24 144.733L619.77 143.964L624.241 151.844ZM633.996 128.55C633.058 135.226 629.695 137.986 624.384 137.24C619.097 136.497 616.648 132.92 617.586 126.244C618.521 119.592 621.887 116.808 627.152 117.548C632.44 118.291 634.931 121.898 633.996 128.55ZM630.436 127.774C630.964 124.017 629.447 122.057 626.533 121.648C623.641 121.241 621.665 122.71 621.137 126.468C620.609 130.225 622.081 132.178 624.995 132.588C627.932 133.001 629.908 131.532 630.436 127.774ZM631.157 98.1701L634.721 98.6709L634.284 101.775L636.957 102.151L636.396 106.143L633.723 105.767L632.184 116.722L628.62 116.221L619.986 103.836L620.547 99.8448L630.721 101.275L631.157 98.1701ZM629.622 111.973L630.621 104.862L625.151 104.093L629.622 111.973Z" fill="#196D30"/>
</svg>
