<?xml version="1.0" encoding="utf-8"?>
<!-- Generator: Adobe Illustrator 25.4.1, SVG Export Plug-In . SVG Version: 6.00 Build 0)  -->
<svg version="1.0" id="katman_1" xmlns="http://www.w3.org/2000/svg" xmlns:xlink="http://www.w3.org/1999/xlink" x="0px" y="0px"
	 viewBox="0 0 1280 1024" style="enable-background:new 0 0 1280 1024;" xml:space="preserve">
<g>
	<path d="M888.5,282.5c0-4.7-4.7-4.7-9.4-4.7c-4.7,0-60.9-4.7-60.9-4.7S780.7,235.7,776,231c0,0,0,0-4.7,0l-28.1,656.2l0,0l225-46.9
		C968.2,835.7,888.5,287.2,888.5,282.5z"/>
	<path d="M762,226.3c0,0-9.4,0-23.4,4.7c-14.1-37.5-37.5-70.3-79.7-70.3h-4.7c-9.4-18.8-23.4-23.4-37.5-23.4
		c-98.4,0-145.3,121.9-159.4,182.8c-37.5,9.4-60.9,18.8-65.6,18.8c-23.4,9.4-23.4,9.4-23.4,28.1c0,14.1-56.2,440.6-56.2,440.6
		l421.9,79.7L762,226.3L762,226.3z M654.2,254.4L654.2,254.4c-23.4,14.1-51.6,18.8-75,28.1c14.1-56.3,42.2-84.4,65.6-93.8
		C649.5,207.5,654.2,226.3,654.2,254.4z M612,165.4L612,165.4c4.7,0,9.4,0,14.1,4.7c-28.1,14.1-65.6,46.9-79.7,121.9
		c-18.8,4.7-37.5,14.1-56.3,18.8C504.2,254.4,546.3,165.4,612,165.4z M630.7,488.8L630.7,488.8c0,0-28.1-14.1-56.2-14.1
		c-46.9,0-46.9,28.1-46.9,37.5c0,37.5,103.1,51.6,103.1,145.3c0,70.3-46.9,117.2-107.8,117.2c-75,0-112.5-46.9-112.5-46.9l18.8-65.6
		c0,0,37.5,32.8,70.3,32.8c23.4,0,28.1-18.8,28.1-28.1c0-51.6-84.4-51.6-84.4-135.9c0-70.3,46.9-135.9,150-135.9
		c37.5,0,56.2,9.4,56.2,9.4L630.7,488.8z M677.6,249.7V245c0-23.4-4.7-42.2-9.4-56.3l0,0l0,0l0,0c23.4,0,37.5,28.1,46.9,56.3
		C701,245,691.7,249.7,677.6,249.7z"/>
</g>
</svg>
