<svg width="30" height="30" viewBox="0 0 19 20" fill="none" xmlns="http://www.w3.org/2000/svg">
  <path
    d="M2.41664 20C1.08113 20 0 18.8812.0 17.4991V2.50091C0 1.11883 1.08113.0 2.41664.0L8.46529.00731261C13.8427.00731261 18.1954 4.55576 18.1248 10.1353 18.0541 15.6271 13.6307 20 8.32397 20H2.41664z"
    fill="#e13f5e"></path>
  <path
    d="M3.63209 15.6271H3.32118C3.15159 15.6271 3.01733 15.4881 3.01733 15.3126V12.8044C3.01733 12.6289 3.15159 12.49 3.32118 12.49h2.4237C5.91447 12.49 6.04873 12.6289 6.04873 12.8044V13.1262c0 1.382-1.08113 2.5009-2.41664 2.5009z"
    fill="#fff"></path>
  <path
    d="M3.32119 8.11701H10.8749c1.3356.0 2.4167-1.11883 2.4167-2.50091V5.31628C13.2916 5.13347 13.1503 4.98721 12.9736 4.98721H5.44105c-1.33551.0-2.41664 1.11883-2.41664 2.50092v.31444c0 .1755.13426.31444.29678.31444z"
    fill="#fff"></path>
  <path
    d="M3.32118 11.8684h3.9288c1.33551.0 2.41663-1.1188 2.41663-2.50093V9.05303C9.66661 8.87753 9.53236 8.73859 9.36277 8.73859H3.32118c-.16959.0-.30385.13894-.30385.314439999999999V11.5539C3.0244 11.7294 3.15866 11.8684 3.32118 11.8684z"
    fill="#fff"></path>
</svg>