<svg width="455" height="455" viewBox="0 0 455 455" fill="none" xmlns="http://www.w3.org/2000/svg">
<rect width="455" height="455" rx="32" fill="#F6FBF9"/>
<path d="M81.8942 55.168C83.3342 55.168 84.5822 55.348 85.6382 55.708C86.6942 56.044 87.6062 56.524 88.3742 57.148C89.8862 58.372 90.8702 60.088 91.3262 62.296L86.7902 63.124C86.4062 61.9 85.8062 60.916 84.9902 60.172C84.1982 59.404 83.2022 59.02 82.0022 59.02C80.3702 59.02 79.0502 59.704 78.0422 61.072C76.9622 62.56 76.4222 64.624 76.4222 67.264C76.4222 69.88 76.9022 71.932 77.8622 73.42C78.8222 74.884 80.1302 75.616 81.7862 75.616C83.4422 75.616 84.6902 75.22 85.5302 74.428C86.3702 73.612 86.7902 72.568 86.7902 71.296H91.3622C91.3622 73.912 90.5222 75.94 88.8422 77.38C87.1862 78.796 84.9062 79.504 82.0022 79.504C78.9062 79.504 76.4462 78.424 74.6222 76.264C72.7742 74.056 71.8502 71.056 71.8502 67.264C71.8502 63.424 72.7982 60.424 74.6942 58.264C76.5182 56.2 78.9182 55.168 81.8942 55.168ZM100.571 64.96C101.627 62.44 103.211 61.18 105.323 61.18C105.731 61.18 106.247 61.264 106.871 61.432L106.799 65.68C106.127 65.536 105.467 65.464 104.819 65.464C101.987 65.464 100.571 67.42 100.571 71.332V79H96.3226V61.468H100.571V64.96ZM123.503 63.592C124.103 64.36 124.547 65.248 124.835 66.256C125.147 67.264 125.303 68.188 125.303 69.028C125.303 69.868 125.255 70.624 125.159 71.296H113.855C113.903 72.712 114.251 73.864 114.899 74.752C115.547 75.64 116.531 76.084 117.851 76.084C119.603 76.084 120.647 75.316 120.983 73.78H125.267C124.979 75.532 124.175 76.912 122.855 77.92C121.487 78.976 119.819 79.504 117.851 79.504C115.547 79.504 113.615 78.664 112.055 76.984C110.447 75.232 109.643 72.988 109.643 70.252C109.643 67.444 110.447 65.188 112.055 63.484C113.591 61.852 115.523 61.036 117.851 61.036C120.275 61.036 122.159 61.888 123.503 63.592ZM117.887 64.42C116.687 64.42 115.751 64.816 115.079 65.608C114.407 66.376 114.011 67.372 113.891 68.596H121.343C121.343 66.7 120.743 65.428 119.543 64.78C119.087 64.54 118.535 64.42 117.887 64.42ZM136.149 68.776C137.541 68.776 139.149 69.004 140.973 69.46V67.732C140.973 66.508 140.721 65.608 140.217 65.032C139.737 64.432 138.933 64.132 137.805 64.132C136.701 64.132 135.849 64.36 135.249 64.816C134.649 65.248 134.349 65.872 134.349 66.688H129.705C129.705 64.696 130.401 63.256 131.793 62.368C133.209 61.48 135.177 61.036 137.697 61.036C141.297 61.036 143.625 62.296 144.681 64.816C145.041 65.68 145.221 66.7 145.221 67.876V79H141.513L141.189 76.66C140.061 78.556 138.333 79.504 136.005 79.504C133.749 79.504 131.997 78.952 130.749 77.848C129.597 76.792 129.021 75.46 129.021 73.852C129.021 72.22 129.657 70.972 130.929 70.108C132.201 69.22 133.941 68.776 136.149 68.776ZM140.973 72.16C139.557 71.776 138.237 71.584 137.013 71.584C134.709 71.584 133.557 72.352 133.557 73.888C133.557 74.536 133.821 75.1 134.349 75.58C134.877 76.036 135.717 76.264 136.869 76.264C138.045 76.264 139.005 75.88 139.749 75.112C140.517 74.32 140.925 73.336 140.973 72.16ZM161.276 78.568C159.692 79.192 158.444 79.504 157.532 79.504C156.62 79.504 155.816 79.396 155.12 79.18C154.448 78.964 153.848 78.64 153.32 78.208C152.216 77.224 151.664 75.868 151.664 74.14V64.348H149.216V61.504H151.664V56.896H155.912V61.504H160.664V64.348H155.912V73.996C155.912 75.436 156.596 76.156 157.964 76.156C158.66 76.156 159.56 75.964 160.664 75.58L161.276 78.568ZM177.82 63.592C178.42 64.36 178.864 65.248 179.152 66.256C179.464 67.264 179.62 68.188 179.62 69.028C179.62 69.868 179.572 70.624 179.476 71.296H168.172C168.22 72.712 168.568 73.864 169.216 74.752C169.864 75.64 170.848 76.084 172.168 76.084C173.92 76.084 174.964 75.316 175.3 73.78H179.584C179.296 75.532 178.492 76.912 177.172 77.92C175.804 78.976 174.136 79.504 172.168 79.504C169.864 79.504 167.932 78.664 166.372 76.984C164.764 75.232 163.96 72.988 163.96 70.252C163.96 67.444 164.764 65.188 166.372 63.484C167.908 61.852 169.84 61.036 172.168 61.036C174.592 61.036 176.476 61.888 177.82 63.592ZM172.204 64.42C171.004 64.42 170.068 64.816 169.396 65.608C168.724 66.376 168.328 67.372 168.208 68.596H175.66C175.66 66.7 175.06 65.428 173.86 64.78C173.404 64.54 172.852 64.42 172.204 64.42ZM199.211 55.636H204.539L212.207 79H207.707L206.087 73.96H197.411L195.755 79H191.255L199.211 55.636ZM198.491 70.756H205.043L201.803 60.712L198.491 70.756ZM220.522 64.528C221.674 62.2 223.522 61.036 226.066 61.036C228.226 61.036 229.846 61.744 230.926 63.16C232.03 64.576 232.582 66.448 232.582 68.776V79H228.334V68.776C228.334 67.48 228.022 66.508 227.398 65.86C226.774 65.188 225.898 64.852 224.77 64.852C223.642 64.852 222.67 65.356 221.854 66.364C221.062 67.372 220.642 68.884 220.594 70.9V79H216.346V61.504H220.054L220.522 64.528ZM253.281 55.636H258.609L266.277 79H261.777L260.157 73.96H251.481L249.825 79H245.325L253.281 55.636ZM252.561 70.756H259.113L255.873 60.712L252.561 70.756ZM277.076 61.036C278.18 61.036 279.164 61.228 280.028 61.612C280.916 61.972 281.66 62.452 282.26 63.052C283.46 64.204 284.168 65.656 284.384 67.408L280.1 67.516C279.908 66.748 279.548 66.112 279.02 65.608C278.516 65.104 277.928 64.852 277.256 64.852C276.584 64.852 276.008 64.96 275.528 65.176C275.048 65.368 274.628 65.68 274.268 66.112C273.452 67.12 273.044 68.512 273.044 70.288C273.044 72.064 273.428 73.408 274.196 74.32C274.964 75.208 275.888 75.652 276.968 75.652C278.072 75.652 278.864 75.4 279.344 74.896C279.848 74.368 280.1 73.66 280.1 72.772H284.384C284.384 74.692 283.748 76.288 282.476 77.56C281.18 78.856 279.368 79.504 277.04 79.504C274.736 79.504 272.804 78.664 271.244 76.984C269.588 75.184 268.76 72.94 268.76 70.252C268.76 67.42 269.588 65.152 271.244 63.448C272.804 61.84 274.748 61.036 277.076 61.036ZM296.166 61.036C297.27 61.036 298.254 61.228 299.118 61.612C300.006 61.972 300.75 62.452 301.35 63.052C302.55 64.204 303.258 65.656 303.474 67.408L299.19 67.516C298.998 66.748 298.638 66.112 298.11 65.608C297.606 65.104 297.018 64.852 296.346 64.852C295.674 64.852 295.098 64.96 294.618 65.176C294.138 65.368 293.718 65.68 293.358 66.112C292.542 67.12 292.134 68.512 292.134 70.288C292.134 72.064 292.518 73.408 293.286 74.32C294.054 75.208 294.978 75.652 296.058 75.652C297.162 75.652 297.954 75.4 298.434 74.896C298.938 74.368 299.19 73.66 299.19 72.772H303.474C303.474 74.692 302.838 76.288 301.566 77.56C300.27 78.856 298.458 79.504 296.13 79.504C293.826 79.504 291.894 78.664 290.334 76.984C288.678 75.184 287.85 72.94 287.85 70.252C287.85 67.42 288.678 65.152 290.334 63.448C291.894 61.84 293.838 61.036 296.166 61.036ZM315.472 61.036C316.648 61.036 317.752 61.228 318.784 61.612C319.816 61.972 320.704 62.536 321.448 63.304C323.104 64.984 323.932 67.312 323.932 70.288C323.932 73.216 323.104 75.52 321.448 77.2C319.96 78.736 317.968 79.504 315.472 79.504C312.976 79.504 310.96 78.736 309.424 77.2C307.768 75.544 306.94 73.24 306.94 70.288C306.94 67.288 307.768 64.96 309.424 63.304C310.936 61.792 312.952 61.036 315.472 61.036ZM319.684 70.252C319.684 68.404 319.324 67.024 318.604 66.112C317.884 65.176 316.876 64.708 315.58 64.708C314.308 64.708 313.264 65.176 312.448 66.112C311.632 67.024 311.224 68.404 311.224 70.252C311.224 72.1 311.584 73.492 312.304 74.428C313.048 75.34 314.056 75.796 315.328 75.796C316.6 75.796 317.644 75.34 318.46 74.428C319.276 73.492 319.684 72.1 319.684 70.252ZM340.615 75.832C339.511 78.16 337.735 79.324 335.287 79.324C332.191 79.324 330.151 78.112 329.167 75.688C328.807 74.848 328.627 73.828 328.627 72.628V61.468H332.875V72.196C332.875 73.348 333.151 74.212 333.703 74.788C334.255 75.34 334.927 75.616 335.719 75.616C336.535 75.616 337.219 75.508 337.771 75.292C338.323 75.052 338.803 74.704 339.211 74.248C340.099 73.216 340.567 71.836 340.615 70.108V61.468H344.863V79H340.615V75.832ZM355.733 64.528C356.885 62.2 358.733 61.036 361.277 61.036C363.437 61.036 365.057 61.744 366.137 63.16C367.241 64.576 367.793 66.448 367.793 68.776V79H363.545V68.776C363.545 67.48 363.233 66.508 362.609 65.86C361.985 65.188 361.109 64.852 359.981 64.852C358.853 64.852 357.881 65.356 357.065 66.364C356.273 67.372 355.853 68.884 355.805 70.9V79H351.557V61.504H355.265L355.733 64.528ZM383.851 78.568C382.267 79.192 381.019 79.504 380.107 79.504C379.195 79.504 378.391 79.396 377.695 79.18C377.023 78.964 376.423 78.64 375.895 78.208C374.791 77.224 374.239 75.868 374.239 74.14V64.348H371.791V61.504H374.239V56.896H378.487V61.504H383.239V64.348H378.487V73.996C378.487 75.436 379.171 76.156 380.539 76.156C381.235 76.156 382.135 75.964 383.239 75.58L383.851 78.568Z" fill="#212B27"/>
<path d="M87.139 100.4C88.149 100.4 88.959 100.655 89.569 101.165C90.189 101.665 90.614 102.32 90.844 103.13L89.569 103.385C89.369 102.795 89.054 102.33 88.624 101.99C88.204 101.64 87.709 101.465 87.139 101.465C86.349 101.465 85.694 101.795 85.174 102.455C84.654 103.115 84.394 104.035 84.394 105.215C84.394 106.385 84.624 107.325 85.084 108.035C85.554 108.745 86.239 109.1 87.139 109.1C87.889 109.1 88.479 108.905 88.909 108.515C89.349 108.115 89.569 107.59 89.569 106.94H90.844C90.844 107.93 90.504 108.715 89.824 109.295C89.154 109.875 88.229 110.165 87.049 110.165C85.879 110.165 84.929 109.715 84.199 108.815C83.479 107.915 83.119 106.71 83.119 105.2C83.119 103.69 83.494 102.515 84.244 101.675C84.994 100.825 85.959 100.4 87.139 100.4ZM95.9932 103.835C94.8632 103.835 94.2782 104.725 94.2382 106.505V110H93.0532V102.815H94.2382V104.195C94.5982 103.195 95.2332 102.695 96.1432 102.695C96.4332 102.695 96.7082 102.74 96.9682 102.83L96.9082 103.985C96.6082 103.885 96.3032 103.835 95.9932 103.835ZM101.256 109.205C102.246 109.205 102.811 108.77 102.951 107.9H104.166C104.056 108.62 103.736 109.18 103.206 109.58C102.686 109.97 102.036 110.165 101.256 110.165C100.296 110.165 99.5161 109.825 98.9161 109.145C98.3161 108.455 98.0161 107.54 98.0161 106.4C98.0161 105.26 98.3161 104.35 98.9161 103.67C99.5261 102.99 100.331 102.65 101.331 102.65C102.341 102.65 103.091 103.04 103.581 103.82C104.081 104.6 104.256 105.55 104.106 106.67H99.2011C99.2011 107.41 99.3811 108.02 99.7411 108.5C100.101 108.97 100.606 109.205 101.256 109.205ZM102.126 103.775C101.896 103.655 101.616 103.595 101.286 103.595C100.676 103.595 100.191 103.805 99.8311 104.225C99.4811 104.635 99.2761 105.15 99.2161 105.77H103.041C103.041 104.77 102.736 104.105 102.126 103.775ZM110.941 105.35C110.941 104.7 110.806 104.235 110.536 103.955C110.266 103.675 109.871 103.535 109.351 103.535C108.841 103.535 108.426 103.64 108.106 103.85C107.796 104.05 107.641 104.37 107.641 104.81H106.336C106.336 103.71 106.926 103.03 108.106 102.77C108.466 102.69 108.856 102.65 109.276 102.65C110.166 102.65 110.861 102.875 111.361 103.325C111.861 103.775 112.111 104.46 112.111 105.38V110H111.091L110.971 108.8C110.531 109.71 109.736 110.165 108.586 110.165C107.816 110.165 107.196 109.95 106.726 109.52C106.266 109.09 106.036 108.555 106.036 107.915C106.036 107.275 106.291 106.775 106.801 106.415C107.321 106.055 107.966 105.875 108.736 105.875C109.506 105.875 110.241 106.005 110.941 106.265V105.35ZM110.941 107.015C110.231 106.815 109.611 106.715 109.081 106.715C108.551 106.715 108.121 106.81 107.791 107C107.461 107.19 107.296 107.49 107.296 107.9C107.296 108.8 107.806 109.25 108.826 109.25C109.406 109.25 109.901 109.045 110.311 108.635C110.731 108.215 110.941 107.675 110.941 107.015ZM118.644 109.79C117.784 110.19 116.999 110.275 116.289 110.045C115.779 109.885 115.419 109.55 115.209 109.04C115.099 108.79 115.044 108.49 115.044 108.14V103.73H113.889V102.83H115.044V100.835H116.214V102.83H118.464V103.73H116.214V108.125C116.214 108.855 116.554 109.22 117.234 109.22C117.604 109.22 118.019 109.13 118.479 108.95L118.644 109.79ZM123.009 109.205C123.999 109.205 124.564 108.77 124.704 107.9H125.919C125.809 108.62 125.489 109.18 124.959 109.58C124.439 109.97 123.789 110.165 123.009 110.165C122.049 110.165 121.269 109.825 120.669 109.145C120.069 108.455 119.769 107.54 119.769 106.4C119.769 105.26 120.069 104.35 120.669 103.67C121.279 102.99 122.084 102.65 123.084 102.65C124.094 102.65 124.844 103.04 125.334 103.82C125.834 104.6 126.009 105.55 125.859 106.67H120.954C120.954 107.41 121.134 108.02 121.494 108.5C121.854 108.97 122.359 109.205 123.009 109.205ZM123.879 103.775C123.649 103.655 123.369 103.595 123.039 103.595C122.429 103.595 121.944 103.805 121.584 104.225C121.234 104.635 121.029 105.15 120.969 105.77H124.794C124.794 104.77 124.489 104.105 123.879 103.775ZM136.268 105.35C136.268 104.7 136.133 104.235 135.863 103.955C135.593 103.675 135.198 103.535 134.678 103.535C134.168 103.535 133.753 103.64 133.433 103.85C133.123 104.05 132.968 104.37 132.968 104.81H131.663C131.663 103.71 132.253 103.03 133.433 102.77C133.793 102.69 134.183 102.65 134.603 102.65C135.493 102.65 136.188 102.875 136.688 103.325C137.188 103.775 137.438 104.46 137.438 105.38V110H136.418L136.298 108.8C135.858 109.71 135.063 110.165 133.913 110.165C133.143 110.165 132.523 109.95 132.053 109.52C131.593 109.09 131.363 108.555 131.363 107.915C131.363 107.275 131.618 106.775 132.128 106.415C132.648 106.055 133.293 105.875 134.063 105.875C134.833 105.875 135.568 106.005 136.268 106.265V105.35ZM136.268 107.015C135.558 106.815 134.938 106.715 134.408 106.715C133.878 106.715 133.448 106.81 133.118 107C132.788 107.19 132.623 107.49 132.623 107.9C132.623 108.8 133.133 109.25 134.153 109.25C134.733 109.25 135.228 109.045 135.638 108.635C136.058 108.215 136.268 107.675 136.268 107.015ZM141.362 104.21C141.832 103.17 142.637 102.65 143.777 102.65C144.627 102.65 145.287 102.93 145.757 103.49C146.237 104.05 146.477 104.815 146.477 105.785V110H145.307V105.785C145.307 105.095 145.142 104.575 144.812 104.225C144.492 103.875 144.032 103.7 143.432 103.7C142.832 103.7 142.347 103.945 141.977 104.435C141.607 104.925 141.412 105.605 141.392 106.475V110H140.207V102.83H141.227L141.362 104.21ZM157.274 105.35C157.274 104.7 157.139 104.235 156.869 103.955C156.599 103.675 156.204 103.535 155.684 103.535C155.174 103.535 154.759 103.64 154.439 103.85C154.129 104.05 153.974 104.37 153.974 104.81H152.669C152.669 103.71 153.259 103.03 154.439 102.77C154.799 102.69 155.189 102.65 155.609 102.65C156.499 102.65 157.194 102.875 157.694 103.325C158.194 103.775 158.444 104.46 158.444 105.38V110H157.424L157.304 108.8C156.864 109.71 156.069 110.165 154.919 110.165C154.149 110.165 153.529 109.95 153.059 109.52C152.599 109.09 152.369 108.555 152.369 107.915C152.369 107.275 152.624 106.775 153.134 106.415C153.654 106.055 154.299 105.875 155.069 105.875C155.839 105.875 156.574 106.005 157.274 106.265V105.35ZM157.274 107.015C156.564 106.815 155.944 106.715 155.414 106.715C154.884 106.715 154.454 106.81 154.124 107C153.794 107.19 153.629 107.49 153.629 107.9C153.629 108.8 154.139 109.25 155.159 109.25C155.739 109.25 156.234 109.045 156.644 108.635C157.064 108.215 157.274 107.675 157.274 107.015ZM163.612 102.65C164.462 102.65 165.137 102.87 165.637 103.31C166.137 103.74 166.462 104.28 166.612 104.93L165.412 105.035C165.282 104.615 165.072 104.29 164.782 104.06C164.492 103.82 164.172 103.7 163.822 103.7C163.182 103.7 162.662 103.94 162.262 104.42C161.872 104.9 161.677 105.555 161.677 106.385C161.677 107.205 161.867 107.865 162.247 108.365C162.637 108.865 163.117 109.115 163.687 109.115C164.267 109.115 164.697 108.985 164.977 108.725C165.267 108.455 165.412 108.075 165.412 107.585H166.627C166.627 108.355 166.357 108.98 165.817 109.46C165.287 109.93 164.592 110.165 163.732 110.165C162.822 110.165 162.047 109.82 161.407 109.13C160.777 108.44 160.462 107.525 160.462 106.385C160.462 105.235 160.777 104.325 161.407 103.655C162.037 102.985 162.772 102.65 163.612 102.65ZM171.332 102.65C172.182 102.65 172.857 102.87 173.357 103.31C173.857 103.74 174.182 104.28 174.332 104.93L173.132 105.035C173.002 104.615 172.792 104.29 172.502 104.06C172.212 103.82 171.892 103.7 171.542 103.7C170.902 103.7 170.382 103.94 169.982 104.42C169.592 104.9 169.397 105.555 169.397 106.385C169.397 107.205 169.587 107.865 169.967 108.365C170.357 108.865 170.837 109.115 171.407 109.115C171.987 109.115 172.417 108.985 172.697 108.725C172.987 108.455 173.132 108.075 173.132 107.585H174.347C174.347 108.355 174.077 108.98 173.537 109.46C173.007 109.93 172.312 110.165 171.452 110.165C170.542 110.165 169.767 109.82 169.127 109.13C168.497 108.44 168.182 107.525 168.182 106.385C168.182 105.235 168.497 104.325 169.127 103.655C169.757 102.985 170.492 102.65 171.332 102.65ZM179.247 102.65C180.247 102.65 181.052 102.975 181.662 103.625C182.282 104.275 182.592 105.205 182.592 106.415C182.592 107.615 182.282 108.54 181.662 109.19C181.052 109.84 180.247 110.165 179.247 110.165C178.247 110.165 177.437 109.84 176.817 109.19C176.207 108.54 175.902 107.615 175.902 106.415C175.902 105.205 176.207 104.275 176.817 103.625C177.437 102.975 178.247 102.65 179.247 102.65ZM181.392 106.415C181.392 105.555 181.212 104.885 180.852 104.405C180.492 103.915 179.962 103.67 179.262 103.67C178.572 103.67 178.042 103.915 177.672 104.405C177.302 104.885 177.117 105.555 177.117 106.415C177.117 107.265 177.292 107.935 177.642 108.425C177.992 108.905 178.512 109.145 179.202 109.145C179.902 109.145 180.442 108.905 180.822 108.425C181.202 107.935 181.392 107.265 181.392 106.415ZM189.73 108.575C189.24 109.615 188.445 110.135 187.345 110.135C186.535 110.135 185.88 109.91 185.38 109.46C184.89 109.01 184.645 108.315 184.645 107.375V102.815H185.83V107.285C185.83 108.495 186.39 109.1 187.51 109.1C188.16 109.1 188.685 108.85 189.085 108.35C189.495 107.85 189.71 107.21 189.73 106.43V102.815H190.915V110H189.73V108.575ZM195.092 104.21C195.562 103.17 196.367 102.65 197.507 102.65C198.357 102.65 199.017 102.93 199.487 103.49C199.967 104.05 200.207 104.815 200.207 105.785V110H199.037V105.785C199.037 105.095 198.872 104.575 198.542 104.225C198.222 103.875 197.762 103.7 197.162 103.7C196.562 103.7 196.077 103.945 195.707 104.435C195.337 104.925 195.142 105.605 195.122 106.475V110H193.937V102.83H194.957L195.092 104.21ZM206.74 109.79C205.88 110.19 205.095 110.275 204.385 110.045C203.875 109.885 203.515 109.55 203.305 109.04C203.195 108.79 203.14 108.49 203.14 108.14V103.73H201.985V102.83H203.14V100.835H204.31V102.83H206.56V103.73H204.31V108.125C204.31 108.855 204.65 109.22 205.33 109.22C205.7 109.22 206.115 109.13 206.575 108.95L206.74 109.79ZM215.954 109.79C215.094 110.19 214.309 110.275 213.599 110.045C213.089 109.885 212.729 109.55 212.519 109.04C212.409 108.79 212.354 108.49 212.354 108.14V103.73H211.199V102.83H212.354V100.835H213.524V102.83H215.774V103.73H213.524V108.125C213.524 108.855 213.864 109.22 214.544 109.22C214.914 109.22 215.329 109.13 215.789 108.95L215.954 109.79ZM220.424 102.65C221.424 102.65 222.229 102.975 222.839 103.625C223.459 104.275 223.769 105.205 223.769 106.415C223.769 107.615 223.459 108.54 222.839 109.19C222.229 109.84 221.424 110.165 220.424 110.165C219.424 110.165 218.614 109.84 217.994 109.19C217.384 108.54 217.079 107.615 217.079 106.415C217.079 105.205 217.384 104.275 217.994 103.625C218.614 102.975 219.424 102.65 220.424 102.65ZM222.569 106.415C222.569 105.555 222.389 104.885 222.029 104.405C221.669 103.915 221.139 103.67 220.439 103.67C219.749 103.67 219.219 103.915 218.849 104.405C218.479 104.885 218.294 105.555 218.294 106.415C218.294 107.265 218.469 107.935 218.819 108.425C219.169 108.905 219.689 109.145 220.379 109.145C221.079 109.145 221.619 108.905 221.999 108.425C222.379 107.935 222.569 107.265 222.569 106.415ZM232.081 109.205C233.071 109.205 233.636 108.77 233.776 107.9H234.991C234.881 108.62 234.561 109.18 234.031 109.58C233.511 109.97 232.861 110.165 232.081 110.165C231.121 110.165 230.341 109.825 229.741 109.145C229.141 108.455 228.841 107.54 228.841 106.4C228.841 105.26 229.141 104.35 229.741 103.67C230.351 102.99 231.156 102.65 232.156 102.65C233.166 102.65 233.916 103.04 234.406 103.82C234.906 104.6 235.081 105.55 234.931 106.67H230.026C230.026 107.41 230.206 108.02 230.566 108.5C230.926 108.97 231.431 109.205 232.081 109.205ZM232.951 103.775C232.721 103.655 232.441 103.595 232.111 103.595C231.501 103.595 231.016 103.805 230.656 104.225C230.306 104.635 230.101 105.15 230.041 105.77H233.866C233.866 104.77 233.561 104.105 232.951 103.775ZM238.466 104.21C238.936 103.17 239.741 102.65 240.881 102.65C241.731 102.65 242.391 102.93 242.861 103.49C243.341 104.05 243.581 104.815 243.581 105.785V110H242.411V105.785C242.411 105.095 242.246 104.575 241.916 104.225C241.596 103.875 241.136 103.7 240.536 103.7C239.936 103.7 239.451 103.945 239.081 104.435C238.711 104.925 238.516 105.605 238.496 106.475V110H237.311V102.83H238.331L238.466 104.21ZM247.249 101.135C247.009 101.135 246.819 101.07 246.679 100.94C246.549 100.8 246.484 100.62 246.484 100.4C246.484 100.17 246.549 99.99 246.679 99.86C246.819 99.72 247.009 99.65 247.249 99.65C247.489 99.65 247.679 99.72 247.819 99.86C247.969 99.99 248.044 100.17 248.044 100.4C248.044 100.62 247.969 100.8 247.819 100.94C247.679 101.07 247.489 101.135 247.249 101.135ZM245.344 112.655C246.224 112.655 246.664 112.105 246.664 111.005V102.8H247.849V111.005C247.849 112.375 247.399 113.22 246.499 113.54C246.219 113.64 245.909 113.69 245.569 113.69C244.949 113.69 244.279 113.505 243.559 113.135L243.619 112.1C244.249 112.47 244.824 112.655 245.344 112.655ZM253.661 102.65C254.661 102.65 255.466 102.975 256.076 103.625C256.696 104.275 257.006 105.205 257.006 106.415C257.006 107.615 256.696 108.54 256.076 109.19C255.466 109.84 254.661 110.165 253.661 110.165C252.661 110.165 251.851 109.84 251.231 109.19C250.621 108.54 250.316 107.615 250.316 106.415C250.316 105.205 250.621 104.275 251.231 103.625C251.851 102.975 252.661 102.65 253.661 102.65ZM255.806 106.415C255.806 105.555 255.626 104.885 255.266 104.405C254.906 103.915 254.376 103.67 253.676 103.67C252.986 103.67 252.456 103.915 252.086 104.405C251.716 104.885 251.531 105.555 251.531 106.415C251.531 107.265 251.706 107.935 252.056 108.425C252.406 108.905 252.926 109.145 253.616 109.145C254.316 109.145 254.856 108.905 255.236 108.425C255.616 107.935 255.806 107.265 255.806 106.415ZM257.829 112.085C258.319 112.465 258.834 112.655 259.374 112.655C259.774 112.655 260.119 112.455 260.409 112.055C260.619 111.765 260.809 111.325 260.979 110.735L261.189 110L258.249 102.83H259.569L261.744 108.545L263.439 102.83H264.639L261.954 111.425C261.724 112.155 261.419 112.715 261.039 113.105C260.669 113.495 260.194 113.69 259.614 113.69C259.044 113.69 258.449 113.515 257.829 113.165V112.085ZM274.549 105.35C274.549 104.7 274.414 104.235 274.144 103.955C273.874 103.675 273.479 103.535 272.959 103.535C272.449 103.535 272.034 103.64 271.714 103.85C271.404 104.05 271.249 104.37 271.249 104.81H269.944C269.944 103.71 270.534 103.03 271.714 102.77C272.074 102.69 272.464 102.65 272.884 102.65C273.774 102.65 274.469 102.875 274.969 103.325C275.469 103.775 275.719 104.46 275.719 105.38V110H274.699L274.579 108.8C274.139 109.71 273.344 110.165 272.194 110.165C271.424 110.165 270.804 109.95 270.334 109.52C269.874 109.09 269.644 108.555 269.644 107.915C269.644 107.275 269.899 106.775 270.409 106.415C270.929 106.055 271.574 105.875 272.344 105.875C273.114 105.875 273.849 106.005 274.549 106.265V105.35ZM274.549 107.015C273.839 106.815 273.219 106.715 272.689 106.715C272.159 106.715 271.729 106.81 271.399 107C271.069 107.19 270.904 107.49 270.904 107.9C270.904 108.8 271.414 109.25 272.434 109.25C273.014 109.25 273.509 109.045 273.919 108.635C274.339 108.215 274.549 107.675 274.549 107.015ZM278.503 99.785H279.688V110H278.503V99.785ZM282.707 99.785H283.892V110H282.707V99.785ZM294.235 109.79C293.375 110.19 292.59 110.275 291.88 110.045C291.37 109.885 291.01 109.55 290.8 109.04C290.69 108.79 290.635 108.49 290.635 108.14V103.73H289.48V102.83H290.635V100.835H291.805V102.83H294.055V103.73H291.805V108.125C291.805 108.855 292.145 109.22 292.825 109.22C293.195 109.22 293.61 109.13 294.07 108.95L294.235 109.79ZM297.31 104.15C297.79 103.15 298.585 102.65 299.695 102.65C300.545 102.65 301.205 102.93 301.675 103.49C302.155 104.05 302.395 104.815 302.395 105.785V110H301.225V105.785C301.225 105.095 301.06 104.575 300.73 104.225C300.41 103.875 299.945 103.7 299.335 103.7C298.725 103.7 298.235 103.96 297.865 104.48C297.495 104.99 297.31 105.7 297.31 106.61V110H296.125V99.785H297.31V104.15ZM307.653 109.205C308.643 109.205 309.208 108.77 309.348 107.9H310.563C310.453 108.62 310.133 109.18 309.603 109.58C309.083 109.97 308.433 110.165 307.653 110.165C306.693 110.165 305.913 109.825 305.313 109.145C304.713 108.455 304.413 107.54 304.413 106.4C304.413 105.26 304.713 104.35 305.313 103.67C305.923 102.99 306.728 102.65 307.728 102.65C308.738 102.65 309.488 103.04 309.978 103.82C310.478 104.6 310.653 105.55 310.503 106.67H305.598C305.598 107.41 305.778 108.02 306.138 108.5C306.498 108.97 307.003 109.205 307.653 109.205ZM308.523 103.775C308.293 103.655 308.013 103.595 307.683 103.595C307.073 103.595 306.588 103.805 306.228 104.225C305.878 104.635 305.673 105.15 305.613 105.77H309.438C309.438 104.77 309.133 104.105 308.523 103.775ZM316.097 104.585C316.097 103.995 316.347 103.525 316.847 103.175C317.357 102.825 318.042 102.65 318.902 102.65C319.762 102.65 320.432 102.83 320.912 103.19C321.402 103.55 321.657 104.005 321.677 104.555H320.522C320.432 103.905 319.882 103.58 318.872 103.58C318.382 103.58 318.002 103.69 317.732 103.91C317.472 104.13 317.342 104.37 317.342 104.63C317.342 104.88 317.442 105.095 317.642 105.275C317.842 105.445 318.162 105.595 318.602 105.725L320.042 106.205C320.652 106.395 321.117 106.64 321.437 106.94C321.767 107.23 321.932 107.635 321.932 108.155C321.932 108.665 321.667 109.13 321.137 109.55C320.607 109.96 319.867 110.165 318.917 110.165C317.967 110.165 317.227 109.955 316.697 109.535C316.167 109.105 315.887 108.555 315.857 107.885H316.997C317.017 108.335 317.197 108.675 317.537 108.905C317.887 109.125 318.322 109.235 318.842 109.235C319.362 109.235 319.792 109.125 320.132 108.905C320.472 108.685 320.642 108.425 320.642 108.125C320.642 107.815 320.542 107.58 320.342 107.42C320.142 107.26 319.817 107.12 319.367 107L317.972 106.535C316.722 106.165 316.097 105.515 316.097 104.585ZM326.842 109.205C327.832 109.205 328.397 108.77 328.537 107.9H329.752C329.642 108.62 329.322 109.18 328.792 109.58C328.272 109.97 327.622 110.165 326.842 110.165C325.882 110.165 325.102 109.825 324.502 109.145C323.902 108.455 323.602 107.54 323.602 106.4C323.602 105.26 323.902 104.35 324.502 103.67C325.112 102.99 325.917 102.65 326.917 102.65C327.927 102.65 328.677 103.04 329.167 103.82C329.667 104.6 329.842 105.55 329.692 106.67H324.787C324.787 107.41 324.967 108.02 325.327 108.5C325.687 108.97 326.192 109.205 326.842 109.205ZM327.712 103.775C327.482 103.655 327.202 103.595 326.872 103.595C326.262 103.595 325.777 103.805 325.417 104.225C325.067 104.635 324.862 105.15 324.802 105.77H328.627C328.627 104.77 328.322 104.105 327.712 103.775ZM335.012 103.835C333.882 103.835 333.297 104.725 333.257 106.505V110H332.072V102.815H333.257V104.195C333.617 103.195 334.252 102.695 335.162 102.695C335.452 102.695 335.727 102.74 335.987 102.83L335.927 103.985C335.627 103.885 335.322 103.835 335.012 103.835ZM337.89 102.83L340.05 108.755L342.225 102.83H343.56L340.71 110H339.405L336.555 102.83H337.89ZM345.419 102.815H346.604V110H345.419V102.815ZM346.004 101.135C345.764 101.135 345.574 101.07 345.434 100.94C345.304 100.8 345.239 100.62 345.239 100.4C345.239 100.17 345.304 99.99 345.434 99.86C345.574 99.72 345.764 99.65 346.004 99.65C346.244 99.65 346.434 99.72 346.574 99.86C346.724 99.99 346.799 100.17 346.799 100.4C346.799 100.62 346.724 100.8 346.574 100.94C346.434 101.07 346.244 101.135 346.004 101.135ZM352.211 102.65C353.061 102.65 353.736 102.87 354.236 103.31C354.736 103.74 355.061 104.28 355.211 104.93L354.011 105.035C353.881 104.615 353.671 104.29 353.381 104.06C353.091 103.82 352.771 103.7 352.421 103.7C351.781 103.7 351.261 103.94 350.861 104.42C350.471 104.9 350.276 105.555 350.276 106.385C350.276 107.205 350.466 107.865 350.846 108.365C351.236 108.865 351.716 109.115 352.286 109.115C352.866 109.115 353.296 108.985 353.576 108.725C353.866 108.455 354.011 108.075 354.011 107.585H355.226C355.226 108.355 354.956 108.98 354.416 109.46C353.886 109.93 353.191 110.165 352.331 110.165C351.421 110.165 350.646 109.82 350.006 109.13C349.376 108.44 349.061 107.525 349.061 106.385C349.061 105.235 349.376 104.325 350.006 103.655C350.636 102.985 351.371 102.65 352.211 102.65ZM360.021 109.205C361.011 109.205 361.576 108.77 361.716 107.9H362.931C362.821 108.62 362.501 109.18 361.971 109.58C361.451 109.97 360.801 110.165 360.021 110.165C359.061 110.165 358.281 109.825 357.681 109.145C357.081 108.455 356.781 107.54 356.781 106.4C356.781 105.26 357.081 104.35 357.681 103.67C358.291 102.99 359.096 102.65 360.096 102.65C361.106 102.65 361.856 103.04 362.346 103.82C362.846 104.6 363.021 105.55 362.871 106.67H357.966C357.966 107.41 358.146 108.02 358.506 108.5C358.866 108.97 359.371 109.205 360.021 109.205ZM360.891 103.775C360.661 103.655 360.381 103.595 360.051 103.595C359.441 103.595 358.956 103.805 358.596 104.225C358.246 104.635 358.041 105.15 357.981 105.77H361.806C361.806 104.77 361.501 104.105 360.891 103.775ZM364.89 104.585C364.89 103.995 365.14 103.525 365.64 103.175C366.15 102.825 366.835 102.65 367.695 102.65C368.555 102.65 369.225 102.83 369.705 103.19C370.195 103.55 370.45 104.005 370.47 104.555H369.315C369.225 103.905 368.675 103.58 367.665 103.58C367.175 103.58 366.795 103.69 366.525 103.91C366.265 104.13 366.135 104.37 366.135 104.63C366.135 104.88 366.235 105.095 366.435 105.275C366.635 105.445 366.955 105.595 367.395 105.725L368.835 106.205C369.445 106.395 369.91 106.64 370.23 106.94C370.56 107.23 370.725 107.635 370.725 108.155C370.725 108.665 370.46 109.13 369.93 109.55C369.4 109.96 368.66 110.165 367.71 110.165C366.76 110.165 366.02 109.955 365.49 109.535C364.96 109.105 364.68 108.555 364.65 107.885H365.79C365.81 108.335 365.99 108.675 366.33 108.905C366.68 109.125 367.115 109.235 367.635 109.235C368.155 109.235 368.585 109.125 368.925 108.905C369.265 108.685 369.435 108.425 369.435 108.125C369.435 107.815 369.335 107.58 369.135 107.42C368.935 107.26 368.61 107.12 368.16 107L366.765 106.535C365.515 106.165 364.89 105.515 364.89 104.585ZM145.165 121.83L146.905 127.545L148.615 122.175H149.605L151.3 127.605L153.055 121.83H154.225L151.885 129H150.73L149.08 123.975L147.46 129H146.32L143.935 121.83H145.165ZM156.124 121.815H157.309V129H156.124V121.815ZM156.709 120.135C156.469 120.135 156.279 120.07 156.139 119.94C156.009 119.8 155.944 119.62 155.944 119.4C155.944 119.17 156.009 118.99 156.139 118.86C156.279 118.72 156.469 118.65 156.709 118.65C156.949 118.65 157.139 118.72 157.279 118.86C157.429 118.99 157.504 119.17 157.504 119.4C157.504 119.62 157.429 119.8 157.279 119.94C157.139 120.07 156.949 120.135 156.709 120.135ZM164.282 128.79C163.422 129.19 162.637 129.275 161.927 129.045C161.417 128.885 161.057 128.55 160.847 128.04C160.737 127.79 160.682 127.49 160.682 127.14V122.73H159.527V121.83H160.682V119.835H161.852V121.83H164.102V122.73H161.852V127.125C161.852 127.855 162.192 128.22 162.872 128.22C163.242 128.22 163.657 128.13 164.117 127.95L164.282 128.79ZM167.356 123.15C167.836 122.15 168.631 121.65 169.741 121.65C170.591 121.65 171.251 121.93 171.721 122.49C172.201 123.05 172.441 123.815 172.441 124.785V129H171.271V124.785C171.271 124.095 171.106 123.575 170.776 123.225C170.456 122.875 169.991 122.7 169.381 122.7C168.771 122.7 168.281 122.96 167.911 123.48C167.541 123.99 167.356 124.7 167.356 125.61V129H166.171V118.785H167.356V123.15ZM177.804 121.65C178.804 121.65 179.609 121.975 180.219 122.625C180.839 123.275 181.149 124.205 181.149 125.415C181.149 126.615 180.839 127.54 180.219 128.19C179.609 128.84 178.804 129.165 177.804 129.165C176.804 129.165 175.994 128.84 175.374 128.19C174.764 127.54 174.459 126.615 174.459 125.415C174.459 124.205 174.764 123.275 175.374 122.625C175.994 121.975 176.804 121.65 177.804 121.65ZM179.949 125.415C179.949 124.555 179.769 123.885 179.409 123.405C179.049 122.915 178.519 122.67 177.819 122.67C177.129 122.67 176.599 122.915 176.229 123.405C175.859 123.885 175.674 124.555 175.674 125.415C175.674 126.265 175.849 126.935 176.199 127.425C176.549 127.905 177.069 128.145 177.759 128.145C178.459 128.145 178.999 127.905 179.379 127.425C179.759 126.935 179.949 126.265 179.949 125.415ZM188.287 127.575C187.797 128.615 187.002 129.135 185.902 129.135C185.092 129.135 184.437 128.91 183.937 128.46C183.447 128.01 183.202 127.315 183.202 126.375V121.815H184.387V126.285C184.387 127.495 184.947 128.1 186.067 128.1C186.717 128.1 187.242 127.85 187.642 127.35C188.052 126.85 188.267 126.21 188.287 125.43V121.815H189.472V129H188.287V127.575ZM196.259 128.79C195.399 129.19 194.614 129.275 193.904 129.045C193.394 128.885 193.034 128.55 192.824 128.04C192.714 127.79 192.659 127.49 192.659 127.14V122.73H191.504V121.83H192.659V119.835H193.829V121.83H196.079V122.73H193.829V127.125C193.829 127.855 194.169 128.22 194.849 128.22C195.219 128.22 195.634 128.13 196.094 127.95L196.259 128.79ZM206.163 124.35C206.163 123.7 206.028 123.235 205.758 122.955C205.488 122.675 205.093 122.535 204.573 122.535C204.063 122.535 203.648 122.64 203.328 122.85C203.018 123.05 202.863 123.37 202.863 123.81H201.558C201.558 122.71 202.148 122.03 203.328 121.77C203.688 121.69 204.078 121.65 204.498 121.65C205.388 121.65 206.083 121.875 206.583 122.325C207.083 122.775 207.333 123.46 207.333 124.38V129H206.313L206.193 127.8C205.753 128.71 204.958 129.165 203.808 129.165C203.038 129.165 202.418 128.95 201.948 128.52C201.488 128.09 201.258 127.555 201.258 126.915C201.258 126.275 201.513 125.775 202.023 125.415C202.543 125.055 203.188 124.875 203.958 124.875C204.728 124.875 205.463 125.005 206.163 125.265V124.35ZM206.163 126.015C205.453 125.815 204.833 125.715 204.303 125.715C203.773 125.715 203.343 125.81 203.013 126C202.683 126.19 202.518 126.49 202.518 126.9C202.518 127.8 203.028 128.25 204.048 128.25C204.628 128.25 205.123 128.045 205.533 127.635C205.953 127.215 206.163 126.675 206.163 126.015ZM211.257 123.21C211.727 122.17 212.532 121.65 213.672 121.65C214.522 121.65 215.182 121.93 215.652 122.49C216.132 123.05 216.372 123.815 216.372 124.785V129H215.202V124.785C215.202 124.095 215.037 123.575 214.707 123.225C214.387 122.875 213.927 122.7 213.327 122.7C212.727 122.7 212.242 122.945 211.872 123.435C211.502 123.925 211.307 124.605 211.287 125.475V129H210.102V121.83H211.122L211.257 123.21ZM217.715 131.085C218.205 131.465 218.72 131.655 219.26 131.655C219.66 131.655 220.005 131.455 220.295 131.055C220.505 130.765 220.695 130.325 220.865 129.735L221.075 129L218.135 121.83H219.455L221.63 127.545L223.325 121.83H224.525L221.84 130.425C221.61 131.155 221.305 131.715 220.925 132.105C220.555 132.495 220.08 132.69 219.5 132.69C218.93 132.69 218.335 132.515 217.715 132.165V131.085ZM234.434 124.35C234.434 123.7 234.299 123.235 234.029 122.955C233.759 122.675 233.364 122.535 232.844 122.535C232.334 122.535 231.919 122.64 231.599 122.85C231.289 123.05 231.134 123.37 231.134 123.81H229.829C229.829 122.71 230.419 122.03 231.599 121.77C231.959 121.69 232.349 121.65 232.769 121.65C233.659 121.65 234.354 121.875 234.854 122.325C235.354 122.775 235.604 123.46 235.604 124.38V129H234.584L234.464 127.8C234.024 128.71 233.229 129.165 232.079 129.165C231.309 129.165 230.689 128.95 230.219 128.52C229.759 128.09 229.529 127.555 229.529 126.915C229.529 126.275 229.784 125.775 230.294 125.415C230.814 125.055 231.459 124.875 232.229 124.875C232.999 124.875 233.734 125.005 234.434 125.265V124.35ZM234.434 126.015C233.724 125.815 233.104 125.715 232.574 125.715C232.044 125.715 231.614 125.81 231.284 126C230.954 126.19 230.789 126.49 230.789 126.9C230.789 127.8 231.299 128.25 232.319 128.25C232.899 128.25 233.394 128.045 233.804 127.635C234.224 127.215 234.434 126.675 234.434 126.015ZM243.083 122.895V118.785H244.253V129H243.293L243.143 127.8C242.913 128.25 242.608 128.59 242.228 128.82C241.848 129.05 241.433 129.165 240.983 129.165C240.073 129.165 239.308 128.815 238.688 128.115C238.078 127.415 237.773 126.505 237.773 125.385C237.773 124.255 238.073 123.35 238.673 122.67C239.283 121.99 240.048 121.65 240.968 121.65C241.898 121.65 242.603 122.065 243.083 122.895ZM241.043 122.7C240.463 122.7 239.973 122.945 239.573 123.435C239.183 123.925 238.988 124.58 238.988 125.4C238.988 126.22 239.188 126.88 239.588 127.38C239.988 127.87 240.468 128.115 241.028 128.115C241.588 128.115 242.063 127.93 242.453 127.56C242.853 127.18 243.063 126.675 243.083 126.045V124.875C243.083 124.205 242.888 123.675 242.498 123.285C242.108 122.895 241.623 122.7 241.043 122.7ZM246.919 123.585C246.919 122.995 247.169 122.525 247.669 122.175C248.179 121.825 248.864 121.65 249.724 121.65C250.584 121.65 251.254 121.83 251.734 122.19C252.224 122.55 252.479 123.005 252.499 123.555H251.344C251.254 122.905 250.704 122.58 249.694 122.58C249.204 122.58 248.824 122.69 248.554 122.91C248.294 123.13 248.164 123.37 248.164 123.63C248.164 123.88 248.264 124.095 248.464 124.275C248.664 124.445 248.984 124.595 249.424 124.725L250.864 125.205C251.474 125.395 251.939 125.64 252.259 125.94C252.589 126.23 252.754 126.635 252.754 127.155C252.754 127.665 252.489 128.13 251.959 128.55C251.429 128.96 250.689 129.165 249.739 129.165C248.789 129.165 248.049 128.955 247.519 128.535C246.989 128.105 246.709 127.555 246.679 126.885H247.819C247.839 127.335 248.019 127.675 248.359 127.905C248.709 128.125 249.144 128.235 249.664 128.235C250.184 128.235 250.614 128.125 250.954 127.905C251.294 127.685 251.464 127.425 251.464 127.125C251.464 126.815 251.364 126.58 251.164 126.42C250.964 126.26 250.639 126.12 250.189 126L248.794 125.535C247.544 125.165 246.919 124.515 246.919 123.585ZM262.244 119.79C261.914 119.66 261.654 119.595 261.464 119.595C261.114 119.595 260.839 119.68 260.639 119.85C260.439 120.02 260.339 120.32 260.339 120.75V121.83H261.824V122.64H260.339V129H259.169V122.64H257.984V121.83H259.169V120.735C259.169 120.025 259.364 119.505 259.754 119.175C260.144 118.835 260.594 118.665 261.104 118.665C261.614 118.665 262.064 118.73 262.454 118.86L262.244 119.79ZM266.486 121.65C267.486 121.65 268.291 121.975 268.901 122.625C269.521 123.275 269.831 124.205 269.831 125.415C269.831 126.615 269.521 127.54 268.901 128.19C268.291 128.84 267.486 129.165 266.486 129.165C265.486 129.165 264.676 128.84 264.056 128.19C263.446 127.54 263.141 126.615 263.141 125.415C263.141 124.205 263.446 123.275 264.056 122.625C264.676 121.975 265.486 121.65 266.486 121.65ZM268.631 125.415C268.631 124.555 268.451 123.885 268.091 123.405C267.731 122.915 267.201 122.67 266.501 122.67C265.811 122.67 265.281 122.915 264.911 123.405C264.541 123.885 264.356 124.555 264.356 125.415C264.356 126.265 264.531 126.935 264.881 127.425C265.231 127.905 265.751 128.145 266.441 128.145C267.141 128.145 267.681 127.905 268.061 127.425C268.441 126.935 268.631 126.265 268.631 125.415ZM275.019 122.835C273.889 122.835 273.304 123.725 273.264 125.505V129H272.079V121.815H273.264V123.195C273.624 122.195 274.259 121.695 275.169 121.695C275.459 121.695 275.734 121.74 275.994 121.83L275.934 122.985C275.634 122.885 275.329 122.835 275.019 122.835ZM284.861 119.79C284.531 119.66 284.271 119.595 284.081 119.595C283.731 119.595 283.456 119.68 283.256 119.85C283.056 120.02 282.956 120.32 282.956 120.75V121.83H284.441V122.64H282.956V129H281.786V122.64H280.601V121.83H281.786V120.735C281.786 120.025 281.981 119.505 282.371 119.175C282.761 118.835 283.211 118.665 283.721 118.665C284.231 118.665 284.681 118.73 285.071 118.86L284.861 119.79ZM289.448 122.835C288.318 122.835 287.733 123.725 287.693 125.505V129H286.508V121.815H287.693V123.195C288.053 122.195 288.688 121.695 289.598 121.695C289.888 121.695 290.163 121.74 290.423 121.83L290.363 122.985C290.063 122.885 289.758 122.835 289.448 122.835ZM294.711 128.205C295.701 128.205 296.266 127.77 296.406 126.9H297.621C297.511 127.62 297.191 128.18 296.661 128.58C296.141 128.97 295.491 129.165 294.711 129.165C293.751 129.165 292.971 128.825 292.371 128.145C291.771 127.455 291.471 126.54 291.471 125.4C291.471 124.26 291.771 123.35 292.371 122.67C292.981 121.99 293.786 121.65 294.786 121.65C295.796 121.65 296.546 122.04 297.036 122.82C297.536 123.6 297.711 124.55 297.561 125.67H292.656C292.656 126.41 292.836 127.02 293.196 127.5C293.556 127.97 294.061 128.205 294.711 128.205ZM295.581 122.775C295.351 122.655 295.071 122.595 294.741 122.595C294.131 122.595 293.646 122.805 293.286 123.225C292.936 123.635 292.731 124.15 292.671 124.77H296.496C296.496 123.77 296.191 123.105 295.581 122.775ZM302.43 128.205C303.42 128.205 303.985 127.77 304.125 126.9H305.34C305.23 127.62 304.91 128.18 304.38 128.58C303.86 128.97 303.21 129.165 302.43 129.165C301.47 129.165 300.69 128.825 300.09 128.145C299.49 127.455 299.19 126.54 299.19 125.4C299.19 124.26 299.49 123.35 300.09 122.67C300.7 121.99 301.505 121.65 302.505 121.65C303.515 121.65 304.265 122.04 304.755 122.82C305.255 123.6 305.43 124.55 305.28 125.67H300.375C300.375 126.41 300.555 127.02 300.915 127.5C301.275 127.97 301.78 128.205 302.43 128.205ZM303.3 122.775C303.07 122.655 302.79 122.595 302.46 122.595C301.85 122.595 301.365 122.805 301.005 123.225C300.655 123.635 300.45 124.15 300.39 124.77H304.215C304.215 123.77 303.91 123.105 303.3 122.775ZM307.645 119.595H308.89L308.755 126.36H307.795L307.645 119.595ZM308.26 129.135C308.01 129.135 307.8 129.055 307.63 128.895C307.47 128.725 307.39 128.525 307.39 128.295C307.39 128.055 307.47 127.855 307.63 127.695C307.8 127.525 308.01 127.44 308.26 127.44C308.52 127.44 308.735 127.525 308.905 127.695C309.085 127.855 309.175 128.055 309.175 128.295C309.175 128.525 309.085 128.725 308.905 128.895C308.735 129.055 308.52 129.135 308.26 129.135Z" fill="#32403B"/>
<rect x="39" y="166" width="375" height="55" rx="10" fill="white"/>
<rect x="39.5" y="166.5" width="374" height="54" rx="9.5" stroke="black" stroke-opacity="0.1"/>
<rect x="39" y="236" width="375" height="55" rx="10" fill="white"/>
<rect x="39.5" y="236.5" width="374" height="54" rx="9.5" stroke="black" stroke-opacity="0.1"/>
<rect x="100" y="312" width="255" height="59" rx="15" fill="#84C7AE"/>
<path d="M154.54 334.436C155.42 334.436 156.183 334.546 156.828 334.766C157.473 334.971 158.031 335.265 158.5 335.646C159.424 336.394 160.025 337.443 160.304 338.792L157.532 339.298C157.297 338.55 156.931 337.949 156.432 337.494C155.948 337.025 155.339 336.79 154.606 336.79C153.609 336.79 152.802 337.208 152.186 338.044C151.526 338.953 151.196 340.215 151.196 341.828C151.196 343.427 151.489 344.681 152.076 345.59C152.663 346.485 153.462 346.932 154.474 346.932C155.486 346.932 156.249 346.69 156.762 346.206C157.275 345.707 157.532 345.069 157.532 344.292H160.326C160.326 345.891 159.813 347.13 158.786 348.01C157.774 348.875 156.381 349.308 154.606 349.308C152.714 349.308 151.211 348.648 150.096 347.328C148.967 345.979 148.402 344.145 148.402 341.828C148.402 339.481 148.981 337.648 150.14 336.328C151.255 335.067 152.721 334.436 154.54 334.436ZM165.954 340.42C166.599 338.88 167.567 338.11 168.858 338.11C169.107 338.11 169.422 338.161 169.804 338.264L169.76 340.86C169.349 340.772 168.946 340.728 168.55 340.728C166.819 340.728 165.954 341.923 165.954 344.314V349H163.358V338.286H165.954V340.42ZM179.968 339.584C180.335 340.053 180.606 340.596 180.782 341.212C180.973 341.828 181.068 342.393 181.068 342.906C181.068 343.419 181.039 343.881 180.98 344.292H174.072C174.101 345.157 174.314 345.861 174.71 346.404C175.106 346.947 175.707 347.218 176.514 347.218C177.585 347.218 178.223 346.749 178.428 345.81H181.046C180.87 346.881 180.379 347.724 179.572 348.34C178.736 348.985 177.717 349.308 176.514 349.308C175.106 349.308 173.925 348.795 172.972 347.768C171.989 346.697 171.498 345.326 171.498 343.654C171.498 341.938 171.989 340.559 172.972 339.518C173.911 338.521 175.091 338.022 176.514 338.022C177.995 338.022 179.147 338.543 179.968 339.584ZM176.536 340.09C175.803 340.09 175.231 340.332 174.82 340.816C174.409 341.285 174.167 341.894 174.094 342.642H178.648C178.648 341.483 178.281 340.706 177.548 340.31C177.269 340.163 176.932 340.09 176.536 340.09ZM187.696 342.752C188.547 342.752 189.529 342.891 190.644 343.17V342.114C190.644 341.366 190.49 340.816 190.182 340.464C189.889 340.097 189.397 339.914 188.708 339.914C188.033 339.914 187.513 340.053 187.146 340.332C186.779 340.596 186.596 340.977 186.596 341.476H183.758C183.758 340.259 184.183 339.379 185.034 338.836C185.899 338.293 187.102 338.022 188.642 338.022C190.842 338.022 192.265 338.792 192.91 340.332C193.13 340.86 193.24 341.483 193.24 342.202V349H190.974L190.776 347.57C190.087 348.729 189.031 349.308 187.608 349.308C186.229 349.308 185.159 348.971 184.396 348.296C183.692 347.651 183.34 346.837 183.34 345.854C183.34 344.857 183.729 344.094 184.506 343.566C185.283 343.023 186.347 342.752 187.696 342.752ZM190.644 344.82C189.779 344.585 188.972 344.468 188.224 344.468C186.816 344.468 186.112 344.937 186.112 345.876C186.112 346.272 186.273 346.617 186.596 346.91C186.919 347.189 187.432 347.328 188.136 347.328C188.855 347.328 189.441 347.093 189.896 346.624C190.365 346.14 190.615 345.539 190.644 344.82ZM203.052 348.736C202.084 349.117 201.321 349.308 200.764 349.308C200.206 349.308 199.715 349.242 199.29 349.11C198.879 348.978 198.512 348.78 198.19 348.516C197.515 347.915 197.178 347.086 197.178 346.03V340.046H195.682V338.308H197.178V335.492H199.774V338.308H202.678V340.046H199.774V345.942C199.774 346.822 200.192 347.262 201.028 347.262C201.453 347.262 202.003 347.145 202.678 346.91L203.052 348.736ZM213.161 339.584C213.528 340.053 213.799 340.596 213.975 341.212C214.166 341.828 214.261 342.393 214.261 342.906C214.261 343.419 214.232 343.881 214.173 344.292H207.265C207.295 345.157 207.507 345.861 207.903 346.404C208.299 346.947 208.901 347.218 209.707 347.218C210.778 347.218 211.416 346.749 211.621 345.81H214.239C214.063 346.881 213.572 347.724 212.765 348.34C211.929 348.985 210.91 349.308 209.707 349.308C208.299 349.308 207.119 348.795 206.165 347.768C205.183 346.697 204.691 345.326 204.691 343.654C204.691 341.938 205.183 340.559 206.165 339.518C207.104 338.521 208.285 338.022 209.707 338.022C211.189 338.022 212.34 338.543 213.161 339.584ZM209.729 340.09C208.996 340.09 208.424 340.332 208.013 340.816C207.603 341.285 207.361 341.894 207.287 342.642H211.841C211.841 341.483 211.475 340.706 210.741 340.31C210.463 340.163 210.125 340.09 209.729 340.09ZM226.234 334.722H229.49L234.176 349H231.426L230.436 345.92H225.134L224.122 349H221.372L226.234 334.722ZM225.794 343.962H229.798L227.818 337.824L225.794 343.962ZM240.775 338.022C241.45 338.022 242.051 338.139 242.579 338.374C243.122 338.594 243.577 338.887 243.943 339.254C244.677 339.958 245.109 340.845 245.241 341.916L242.623 341.982C242.506 341.513 242.286 341.124 241.963 340.816C241.655 340.508 241.296 340.354 240.885 340.354C240.475 340.354 240.123 340.42 239.829 340.552C239.536 340.669 239.279 340.86 239.059 341.124C238.561 341.74 238.311 342.591 238.311 343.676C238.311 344.761 238.546 345.583 239.015 346.14C239.485 346.683 240.049 346.954 240.709 346.954C241.384 346.954 241.868 346.8 242.161 346.492C242.469 346.169 242.623 345.737 242.623 345.194H245.241C245.241 346.367 244.853 347.343 244.075 348.12C243.283 348.912 242.176 349.308 240.753 349.308C239.345 349.308 238.165 348.795 237.211 347.768C236.199 346.668 235.693 345.297 235.693 343.654C235.693 341.923 236.199 340.537 237.211 339.496C238.165 338.513 239.353 338.022 240.775 338.022ZM252.441 338.022C253.116 338.022 253.717 338.139 254.245 338.374C254.788 338.594 255.243 338.887 255.609 339.254C256.343 339.958 256.775 340.845 256.907 341.916L254.289 341.982C254.172 341.513 253.952 341.124 253.629 340.816C253.321 340.508 252.962 340.354 252.551 340.354C252.141 340.354 251.789 340.42 251.495 340.552C251.202 340.669 250.945 340.86 250.725 341.124C250.227 341.74 249.977 342.591 249.977 343.676C249.977 344.761 250.212 345.583 250.681 346.14C251.151 346.683 251.715 346.954 252.375 346.954C253.05 346.954 253.534 346.8 253.827 346.492C254.135 346.169 254.289 345.737 254.289 345.194H256.907C256.907 346.367 256.519 347.343 255.741 348.12C254.949 348.912 253.842 349.308 252.419 349.308C251.011 349.308 249.831 348.795 248.877 347.768C247.865 346.668 247.359 345.297 247.359 343.654C247.359 341.923 247.865 340.537 248.877 339.496C249.831 338.513 251.019 338.022 252.441 338.022ZM264.239 338.022C264.958 338.022 265.633 338.139 266.263 338.374C266.894 338.594 267.437 338.939 267.891 339.408C268.903 340.435 269.409 341.857 269.409 343.676C269.409 345.465 268.903 346.873 267.891 347.9C266.982 348.839 265.765 349.308 264.239 349.308C262.714 349.308 261.482 348.839 260.543 347.9C259.531 346.888 259.025 345.48 259.025 343.676C259.025 341.843 259.531 340.42 260.543 339.408C261.467 338.484 262.699 338.022 264.239 338.022ZM266.813 343.654C266.813 342.525 266.593 341.681 266.153 341.124C265.713 340.552 265.097 340.266 264.305 340.266C263.528 340.266 262.89 340.552 262.391 341.124C261.893 341.681 261.643 342.525 261.643 343.654C261.643 344.783 261.863 345.634 262.303 346.206C262.758 346.763 263.374 347.042 264.151 347.042C264.929 347.042 265.567 346.763 266.065 346.206C266.564 345.634 266.813 344.783 266.813 343.654ZM279.604 347.064C278.929 348.487 277.844 349.198 276.348 349.198C274.456 349.198 273.209 348.457 272.608 346.976C272.388 346.463 272.278 345.839 272.278 345.106V338.286H274.874V344.842C274.874 345.546 275.043 346.074 275.38 346.426C275.717 346.763 276.128 346.932 276.612 346.932C277.111 346.932 277.529 346.866 277.866 346.734C278.203 346.587 278.497 346.375 278.746 346.096C279.289 345.465 279.575 344.622 279.604 343.566V338.286H282.2V349H279.604V347.064ZM288.843 340.156C289.547 338.733 290.676 338.022 292.231 338.022C293.551 338.022 294.541 338.455 295.201 339.32C295.876 340.185 296.213 341.329 296.213 342.752V349H293.617V342.752C293.617 341.96 293.426 341.366 293.045 340.97C292.664 340.559 292.128 340.354 291.439 340.354C290.75 340.354 290.156 340.662 289.657 341.278C289.173 341.894 288.916 342.818 288.887 344.05V349H286.291V338.308H288.557L288.843 340.156ZM306.026 348.736C305.058 349.117 304.295 349.308 303.738 349.308C303.181 349.308 302.689 349.242 302.264 349.11C301.853 348.978 301.487 348.78 301.164 348.516C300.489 347.915 300.152 347.086 300.152 346.03V340.046H298.656V338.308H300.152V335.492H302.748V338.308H305.652V340.046H302.748V345.942C302.748 346.822 303.166 347.262 304.002 347.262C304.427 347.262 304.977 347.145 305.652 346.91L306.026 348.736Z" fill="white"/>
<path d="M124.534 387.194H125.878L128.832 396H127.684L126.928 393.76H123.428L122.672 396H121.51L124.534 387.194ZM123.722 392.892H126.648L125.192 388.552L123.722 392.892ZM130.613 386.466H131.719V396H130.613V386.466ZM137.267 390.246C136.212 390.246 135.666 391.077 135.629 392.738V396H134.523V389.294H135.629V390.582C135.965 389.649 136.558 389.182 137.407 389.182C137.678 389.182 137.934 389.224 138.177 389.308L138.121 390.386C137.841 390.293 137.556 390.246 137.267 390.246ZM142.179 395.258C143.103 395.258 143.63 394.852 143.761 394.04H144.895C144.792 394.712 144.494 395.235 143.999 395.608C143.514 395.972 142.907 396.154 142.179 396.154C141.283 396.154 140.555 395.837 139.995 395.202C139.435 394.558 139.155 393.704 139.155 392.64C139.155 391.576 139.435 390.727 139.995 390.092C140.564 389.457 141.316 389.14 142.249 389.14C143.192 389.14 143.892 389.504 144.349 390.232C144.816 390.96 144.979 391.847 144.839 392.892H140.261C140.261 393.583 140.429 394.152 140.765 394.6C141.101 395.039 141.572 395.258 142.179 395.258ZM142.991 390.19C142.776 390.078 142.515 390.022 142.207 390.022C141.638 390.022 141.185 390.218 140.849 390.61C140.522 390.993 140.331 391.473 140.275 392.052H143.845C143.845 391.119 143.56 390.498 142.991 390.19ZM151.218 391.66C151.218 391.053 151.092 390.619 150.84 390.358C150.588 390.097 150.219 389.966 149.734 389.966C149.258 389.966 148.871 390.064 148.572 390.26C148.283 390.447 148.138 390.745 148.138 391.156H146.92C146.92 390.129 147.471 389.495 148.572 389.252C148.908 389.177 149.272 389.14 149.664 389.14C150.495 389.14 151.143 389.35 151.61 389.77C152.077 390.19 152.31 390.829 152.31 391.688V396H151.358L151.246 394.88C150.835 395.729 150.093 396.154 149.02 396.154C148.301 396.154 147.723 395.953 147.284 395.552C146.855 395.151 146.64 394.651 146.64 394.054C146.64 393.457 146.878 392.99 147.354 392.654C147.839 392.318 148.441 392.15 149.16 392.15C149.879 392.15 150.565 392.271 151.218 392.514V391.66ZM151.218 393.214C150.555 393.027 149.977 392.934 149.482 392.934C148.987 392.934 148.586 393.023 148.278 393.2C147.97 393.377 147.816 393.657 147.816 394.04C147.816 394.88 148.292 395.3 149.244 395.3C149.785 395.3 150.247 395.109 150.63 394.726C151.022 394.334 151.218 393.83 151.218 393.214ZM159.29 390.302V386.466H160.382V396H159.486L159.346 394.88C159.131 395.3 158.847 395.617 158.492 395.832C158.137 396.047 157.75 396.154 157.33 396.154C156.481 396.154 155.767 395.827 155.188 395.174C154.619 394.521 154.334 393.671 154.334 392.626C154.334 391.571 154.614 390.727 155.174 390.092C155.743 389.457 156.457 389.14 157.316 389.14C158.184 389.14 158.842 389.527 159.29 390.302ZM157.386 390.12C156.845 390.12 156.387 390.349 156.014 390.806C155.65 391.263 155.468 391.875 155.468 392.64C155.468 393.405 155.655 394.021 156.028 394.488C156.401 394.945 156.849 395.174 157.372 395.174C157.895 395.174 158.338 395.001 158.702 394.656C159.075 394.301 159.271 393.83 159.29 393.242V392.15C159.29 391.525 159.108 391.03 158.744 390.666C158.38 390.302 157.927 390.12 157.386 390.12ZM161.877 397.946C162.334 398.301 162.815 398.478 163.319 398.478C163.692 398.478 164.014 398.291 164.285 397.918C164.481 397.647 164.658 397.237 164.817 396.686L165.013 396L162.269 389.308H163.501L165.531 394.642L167.113 389.308H168.233L165.727 397.33C165.512 398.011 165.227 398.534 164.873 398.898C164.527 399.262 164.084 399.444 163.543 399.444C163.011 399.444 162.455 399.281 161.877 398.954V397.946ZM174.444 387.194V391.072H178.77V387.194H179.876V396H178.77V392.024H174.444V396H173.338V387.194H174.444ZM186.847 391.66C186.847 391.053 186.721 390.619 186.469 390.358C186.217 390.097 185.848 389.966 185.363 389.966C184.887 389.966 184.5 390.064 184.201 390.26C183.912 390.447 183.767 390.745 183.767 391.156H182.549C182.549 390.129 183.1 389.495 184.201 389.252C184.537 389.177 184.901 389.14 185.293 389.14C186.124 389.14 186.772 389.35 187.239 389.77C187.706 390.19 187.939 390.829 187.939 391.688V396H186.987L186.875 394.88C186.464 395.729 185.722 396.154 184.649 396.154C183.93 396.154 183.352 395.953 182.913 395.552C182.484 395.151 182.269 394.651 182.269 394.054C182.269 393.457 182.507 392.99 182.983 392.654C183.468 392.318 184.07 392.15 184.789 392.15C185.508 392.15 186.194 392.271 186.847 392.514V391.66ZM186.847 393.214C186.184 393.027 185.606 392.934 185.111 392.934C184.616 392.934 184.215 393.023 183.907 393.2C183.599 393.377 183.445 393.657 183.445 394.04C183.445 394.88 183.921 395.3 184.873 395.3C185.414 395.3 185.876 395.109 186.259 394.726C186.651 394.334 186.847 393.83 186.847 393.214ZM190.621 389.308L192.637 394.838L194.667 389.308H195.913L193.253 396H192.035L189.375 389.308H190.621ZM199.888 395.258C200.812 395.258 201.339 394.852 201.47 394.04H202.604C202.501 394.712 202.203 395.235 201.708 395.608C201.223 395.972 200.616 396.154 199.888 396.154C198.992 396.154 198.264 395.837 197.704 395.202C197.144 394.558 196.864 393.704 196.864 392.64C196.864 391.576 197.144 390.727 197.704 390.092C198.273 389.457 199.025 389.14 199.958 389.14C200.901 389.14 201.601 389.504 202.058 390.232C202.525 390.96 202.688 391.847 202.548 392.892H197.97C197.97 393.583 198.138 394.152 198.474 394.6C198.81 395.039 199.281 395.258 199.888 395.258ZM200.7 390.19C200.485 390.078 200.224 390.022 199.916 390.022C199.347 390.022 198.894 390.218 198.558 390.61C198.231 390.993 198.04 391.473 197.984 392.052H201.554C201.554 391.119 201.269 390.498 200.7 390.19ZM210.093 387.194H211.437L214.391 396H213.243L212.487 393.76H208.987L208.231 396H207.069L210.093 387.194ZM209.281 392.892H212.207L210.751 388.552L209.281 392.892ZM217.236 390.596C217.674 389.625 218.426 389.14 219.49 389.14C220.283 389.14 220.899 389.401 221.338 389.924C221.786 390.447 222.01 391.161 222.01 392.066V396H220.918V392.066C220.918 391.422 220.764 390.937 220.456 390.61C220.157 390.283 219.728 390.12 219.168 390.12C218.608 390.12 218.155 390.349 217.81 390.806C217.464 391.263 217.282 391.898 217.264 392.71V396H216.158V389.308H217.11L217.236 390.596ZM229.917 387.194H231.261L234.215 396H233.067L232.311 393.76H228.811L228.055 396H226.893L229.917 387.194ZM229.105 392.892H232.031L230.575 388.552L229.105 392.892ZM238.222 389.14C239.015 389.14 239.645 389.345 240.112 389.756C240.579 390.157 240.882 390.661 241.022 391.268L239.902 391.366C239.781 390.974 239.585 390.671 239.314 390.456C239.043 390.232 238.745 390.12 238.418 390.12C237.821 390.12 237.335 390.344 236.962 390.792C236.598 391.24 236.416 391.851 236.416 392.626C236.416 393.391 236.593 394.007 236.948 394.474C237.312 394.941 237.76 395.174 238.292 395.174C238.833 395.174 239.235 395.053 239.496 394.81C239.767 394.558 239.902 394.203 239.902 393.746H241.036C241.036 394.465 240.784 395.048 240.28 395.496C239.785 395.935 239.137 396.154 238.334 396.154C237.485 396.154 236.761 395.832 236.164 395.188C235.576 394.544 235.282 393.69 235.282 392.626C235.282 391.553 235.576 390.703 236.164 390.078C236.752 389.453 237.438 389.14 238.222 389.14ZM245.427 389.14C246.22 389.14 246.85 389.345 247.317 389.756C247.784 390.157 248.087 390.661 248.227 391.268L247.107 391.366C246.986 390.974 246.79 390.671 246.519 390.456C246.248 390.232 245.95 390.12 245.623 390.12C245.026 390.12 244.54 390.344 244.167 390.792C243.803 391.24 243.621 391.851 243.621 392.626C243.621 393.391 243.798 394.007 244.153 394.474C244.517 394.941 244.965 395.174 245.497 395.174C246.038 395.174 246.44 395.053 246.701 394.81C246.972 394.558 247.107 394.203 247.107 393.746H248.241C248.241 394.465 247.989 395.048 247.485 395.496C246.99 395.935 246.342 396.154 245.539 396.154C244.69 396.154 243.966 395.832 243.369 395.188C242.781 394.544 242.487 393.69 242.487 392.626C242.487 391.553 242.781 390.703 243.369 390.078C243.957 389.453 244.643 389.14 245.427 389.14ZM252.814 389.14C253.748 389.14 254.499 389.443 255.068 390.05C255.647 390.657 255.936 391.525 255.936 392.654C255.936 393.774 255.647 394.637 255.068 395.244C254.499 395.851 253.748 396.154 252.814 396.154C251.881 396.154 251.125 395.851 250.546 395.244C249.977 394.637 249.692 393.774 249.692 392.654C249.692 391.525 249.977 390.657 250.546 390.05C251.125 389.443 251.881 389.14 252.814 389.14ZM254.816 392.654C254.816 391.851 254.648 391.226 254.312 390.778C253.976 390.321 253.482 390.092 252.828 390.092C252.184 390.092 251.69 390.321 251.344 390.778C250.999 391.226 250.826 391.851 250.826 392.654C250.826 393.447 250.99 394.073 251.316 394.53C251.643 394.978 252.128 395.202 252.772 395.202C253.426 395.202 253.93 394.978 254.284 394.53C254.639 394.073 254.816 393.447 254.816 392.654ZM262.599 394.67C262.141 395.641 261.399 396.126 260.373 396.126C259.617 396.126 259.005 395.916 258.539 395.496C258.081 395.076 257.853 394.427 257.853 393.55V389.294H258.959V393.466C258.959 394.595 259.481 395.16 260.527 395.16C261.133 395.16 261.623 394.927 261.997 394.46C262.379 393.993 262.58 393.396 262.599 392.668V389.294H263.705V396H262.599V394.67ZM267.603 390.596C268.042 389.625 268.793 389.14 269.857 389.14C270.65 389.14 271.266 389.401 271.705 389.924C272.153 390.447 272.377 391.161 272.377 392.066V396H271.285V392.066C271.285 391.422 271.131 390.937 270.823 390.61C270.524 390.283 270.095 390.12 269.535 390.12C268.975 390.12 268.522 390.349 268.177 390.806C267.832 391.263 267.65 391.898 267.631 392.71V396H266.525V389.308H267.477L267.603 390.596ZM278.475 395.804C277.672 396.177 276.939 396.257 276.277 396.042C275.801 395.893 275.465 395.58 275.269 395.104C275.166 394.871 275.115 394.591 275.115 394.264V390.148H274.037V389.308H275.115V387.446H276.207V389.308H278.307V390.148H276.207V394.25C276.207 394.931 276.524 395.272 277.159 395.272C277.504 395.272 277.891 395.188 278.321 395.02L278.475 395.804ZM282.296 388.048C281.204 388.048 280.579 388.477 280.42 389.336H279.244C279.31 388.645 279.594 388.09 280.098 387.67C280.602 387.25 281.307 387.04 282.212 387.04C283.127 387.04 283.846 387.264 284.368 387.712C284.9 388.16 285.166 388.706 285.166 389.35C285.166 389.835 285.045 390.241 284.802 390.568C284.56 390.885 284.168 391.193 283.626 391.492C283.393 391.623 283.197 391.739 283.038 391.842C282.88 391.945 282.754 392.061 282.66 392.192C282.483 392.425 282.394 392.761 282.394 393.2V393.746H281.302V393.116C281.302 392.528 281.4 392.08 281.596 391.772C281.792 391.455 282.147 391.156 282.66 390.876C283.174 390.596 283.519 390.353 283.696 390.148C283.874 389.933 283.962 389.649 283.962 389.294C283.962 388.939 283.813 388.645 283.514 388.412C283.225 388.169 282.819 388.048 282.296 388.048ZM281.862 394.572C282.105 394.572 282.306 394.651 282.464 394.81C282.623 394.969 282.702 395.16 282.702 395.384C282.702 395.599 282.623 395.781 282.464 395.93C282.306 396.079 282.105 396.154 281.862 396.154C281.62 396.154 281.424 396.079 281.274 395.93C281.125 395.781 281.05 395.599 281.05 395.384C281.05 395.16 281.125 394.969 281.274 394.81C281.424 394.651 281.62 394.572 281.862 394.572ZM295.25 389.336C295.092 388.477 294.462 388.048 293.36 388.048C292.772 388.048 292.32 388.179 292.002 388.44C291.685 388.692 291.526 389 291.526 389.364C291.526 389.719 291.624 389.989 291.82 390.176C292.016 390.363 292.334 390.526 292.772 390.666L294.606 391.296C295.232 391.511 295.726 391.805 296.09 392.178C296.464 392.551 296.65 393.079 296.65 393.76C296.65 394.432 296.361 395.001 295.782 395.468C295.204 395.925 294.429 396.154 293.458 396.154C292.488 396.154 291.69 395.911 291.064 395.426C290.448 394.931 290.131 394.241 290.112 393.354H291.19C291.19 393.933 291.391 394.376 291.792 394.684C292.203 394.992 292.726 395.146 293.36 395.146C294.004 395.146 294.513 395.006 294.886 394.726C295.26 394.437 295.446 394.101 295.446 393.718C295.446 393.326 295.33 393.018 295.096 392.794C294.872 392.57 294.536 392.383 294.088 392.234L292.534 391.66C291.806 391.417 291.256 391.128 290.882 390.792C290.509 390.456 290.322 389.966 290.322 389.322C290.322 388.669 290.584 388.127 291.106 387.698C291.629 387.259 292.362 387.04 293.304 387.04C294.247 387.04 294.966 387.25 295.46 387.67C295.964 388.081 296.254 388.636 296.328 389.336H295.25ZM299.107 389.294H300.213V396H299.107V389.294ZM299.653 387.726C299.429 387.726 299.252 387.665 299.121 387.544C299 387.413 298.939 387.245 298.939 387.04C298.939 386.825 299 386.657 299.121 386.536C299.252 386.405 299.429 386.34 299.653 386.34C299.877 386.34 300.054 386.405 300.185 386.536C300.325 386.657 300.395 386.825 300.395 387.04C300.395 387.245 300.325 387.413 300.185 387.544C300.054 387.665 299.877 387.726 299.653 387.726ZM303.501 395.79C302.941 395.519 302.661 395.104 302.661 394.544C302.661 394.255 302.768 394.003 302.983 393.788C303.207 393.564 303.482 393.415 303.809 393.34C303.305 392.892 303.053 392.304 303.053 391.576C303.053 390.848 303.309 390.26 303.823 389.812C304.345 389.364 304.961 389.14 305.671 389.14C306.38 389.14 306.982 389.308 307.477 389.644C307.542 389.149 307.738 388.753 308.065 388.454C308.401 388.155 308.839 388.006 309.381 388.006L309.283 389.098C308.461 389.098 308.032 389.443 307.995 390.134C308.321 390.535 308.485 391.016 308.485 391.576C308.485 392.295 308.223 392.887 307.701 393.354C307.187 393.811 306.543 394.04 305.769 394.04C305.237 394.04 304.765 393.933 304.355 393.718C304.168 393.755 304 393.844 303.851 393.984C303.701 394.115 303.627 394.297 303.627 394.53C303.627 395.025 304.037 395.272 304.859 395.272H307.463C308.088 395.272 308.583 395.407 308.947 395.678C309.311 395.939 309.493 396.308 309.493 396.784C309.493 397.493 309.133 398.114 308.415 398.646C307.705 399.178 306.805 399.444 305.713 399.444C304.621 399.444 303.762 399.239 303.137 398.828C302.511 398.427 302.199 397.918 302.199 397.302C302.199 396.901 302.315 396.574 302.549 396.322C302.791 396.07 303.109 395.893 303.501 395.79ZM303.291 397.26C303.291 397.615 303.482 397.918 303.865 398.17C304.257 398.431 304.845 398.562 305.629 398.562C306.422 398.562 307.08 398.389 307.603 398.044C308.135 397.708 308.401 397.311 308.401 396.854C308.401 396.639 308.321 396.453 308.163 396.294C308.013 396.145 307.78 396.07 307.463 396.07H304.761C304.285 396.089 303.921 396.201 303.669 396.406C303.417 396.621 303.291 396.905 303.291 397.26ZM307.407 391.576C307.407 391.091 307.262 390.699 306.973 390.4C306.683 390.092 306.282 389.938 305.769 389.938C305.265 389.938 304.868 390.092 304.579 390.4C304.289 390.699 304.145 391.091 304.145 391.576C304.145 392.061 304.289 392.463 304.579 392.78C304.877 393.088 305.279 393.242 305.783 393.242C306.287 393.242 306.683 393.083 306.973 392.766C307.262 392.449 307.407 392.052 307.407 391.576ZM312.201 390.596C312.639 389.625 313.391 389.14 314.455 389.14C315.248 389.14 315.864 389.401 316.303 389.924C316.751 390.447 316.975 391.161 316.975 392.066V396H315.883V392.066C315.883 391.422 315.729 390.937 315.421 390.61C315.122 390.283 314.693 390.12 314.133 390.12C313.573 390.12 313.12 390.349 312.775 390.806C312.429 391.263 312.247 391.898 312.229 392.71V396H311.123V389.308H312.075L312.201 390.596ZM322.908 387.194H324.014V396H322.908V387.194ZM327.896 390.596C328.335 389.625 329.086 389.14 330.15 389.14C330.943 389.14 331.559 389.401 331.998 389.924C332.446 390.447 332.67 391.161 332.67 392.066V396H331.578V392.066C331.578 391.422 331.424 390.937 331.116 390.61C330.817 390.283 330.388 390.12 329.828 390.12C329.268 390.12 328.815 390.349 328.47 390.806C328.125 391.263 327.943 391.898 327.924 392.71V396H326.818V389.308H327.77L327.896 390.596Z" fill="#32403B"/>
<path d="M289.146 397.4H333.86V398.1H289.146V397.4Z" fill="#32403B"/>
</svg>
